<?xml version="1.0" encoding="utf-8" standalone="no"?>
<!DOCTYPE svg PUBLIC "-//W3C//DTD SVG 1.1//EN"
  "http://www.w3.org/Graphics/SVG/1.1/DTD/svg11.dtd">
<svg height="345.6pt" version="1.1" viewBox="0 0 460.8 345.6" width="460.8pt" xmlns="http://www.w3.org/2000/svg" xmlns:xlink="http://www.w3.org/1999/xlink">
 <metadata>
  <rdf:RDF xmlns:cc="http://creativecommons.org/ns#" xmlns:dc="http://purl.org/dc/elements/1.1/" xmlns:rdf="http://www.w3.org/1999/02/22-rdf-syntax-ns#">
   <cc:Work>
    <dc:type rdf:resource="http://purl.org/dc/dcmitype/StillImage"/>
    <dc:date>2022-07-12T08:34:48.542181</dc:date>
    <dc:format>image/svg+xml</dc:format>
    <dc:creator>
     <cc:Agent>
      <dc:title>Matplotlib v3.4.3, https://matplotlib.org/</dc:title>
     </cc:Agent>
    </dc:creator>
   </cc:Work>
  </rdf:RDF>
 </metadata>
 <defs>
  <style type="text/css">*{stroke-linecap:butt;stroke-linejoin:round;}</style>
 </defs>
 <g id="figure_1">
  <g id="patch_1">
   <path d="M 0 345.6 
L 460.8 345.6 
L 460.8 0 
L 0 0 
z
" style="fill:#ffffff;"/>
  </g>
  <g id="axes_1">
   <g id="patch_2">
    <path d="M 57.6 307.584 
L 414.72 307.584 
L 414.72 41.472 
L 57.6 41.472 
z
" style="fill:#ffffff;"/>
   </g>
   <g id="PolyCollection_1">
    <defs>
     <path d="M 73.832727 -136.687408 
L 73.832727 -186.016402 
L 77.047129 -169.034125 
L 80.26153 -162.53729 
L 83.475932 -173.710222 
L 86.690333 -166.998936 
L 89.904734 -163.899657 
L 93.119136 -161.538295 
L 96.333537 -165.594039 
L 99.547939 -162.60573 
L 102.76234 -160.179899 
L 105.976742 -162.94536 
L 109.191143 -165.004092 
L 112.405545 -163.762567 
L 115.619946 -162.007896 
L 118.834347 -160.483471 
L 122.048749 -159.686901 
L 125.26315 -158.953526 
L 128.477552 -157.781691 
L 131.691953 -157.168313 
L 134.906355 -156.157216 
L 138.120756 -157.859673 
L 141.335158 -159.256688 
L 144.549559 -160.439399 
L 147.76396 -159.554659 
L 150.978362 -160.589317 
L 154.192763 -160.115134 
L 157.407165 -159.664851 
L 160.621566 -158.923289 
L 163.835968 -158.523246 
L 167.050369 -157.85243 
L 170.26477 -157.491157 
L 173.479172 -158.425952 
L 176.693573 -159.257326 
L 179.907975 -158.913866 
L 183.122376 -159.663894 
L 186.336778 -159.334076 
L 189.551179 -158.779927 
L 192.765581 -158.477772 
L 195.979982 -158.184708 
L 199.194383 -158.876385 
L 202.408785 -158.382332 
L 205.623186 -159.019802 
L 208.837588 -158.751622 
L 212.051989 -158.294849 
L 215.266391 -158.887358 
L 218.480792 -159.435941 
L 221.695194 -159.188539 
L 224.909595 -158.767804 
L 228.123996 -159.282667 
L 231.338398 -159.052293 
L 234.552799 -159.731132 
L 237.767201 -160.182739 
L 240.981602 -159.954984 
L 244.196004 -159.569419 
L 247.410405 -159.197328 
L 250.624806 -158.837613 
L 253.839208 -158.638905 
L 257.053609 -158.444237 
L 260.268011 -158.253395 
L 263.482412 -157.923693 
L 266.696814 -158.361705 
L 269.911215 -158.181175 
L 273.125617 -157.868731 
L 276.340018 -157.696481 
L 279.554419 -158.11389 
L 282.768821 -158.50841 
L 285.983222 -158.34092 
L 289.197624 -158.715773 
L 292.412025 -159.072359 
L 295.626427 -158.908944 
L 298.840828 -158.627352 
L 302.05523 -158.352831 
L 305.269631 -158.200705 
L 308.484032 -158.050918 
L 311.698434 -157.903374 
L 314.912835 -158.248914 
L 318.127237 -157.993884 
L 321.341638 -158.325222 
L 324.55604 -158.077472 
L 327.770441 -158.395752 
L 330.984842 -158.7007 
L 334.199244 -158.993571 
L 337.413645 -158.755033 
L 340.628047 -158.521763 
L 343.842448 -158.293461 
L 347.05685 -158.166584 
L 350.271251 -158.451696 
L 353.485653 -158.326875 
L 356.700054 -158.109797 
L 359.914455 -157.98918 
L 363.128857 -157.870046 
L 366.343258 -158.146617 
L 369.55766 -157.939686 
L 372.772061 -158.207101 
L 375.986463 -158.092527 
L 379.200864 -158.35078 
L 382.415266 -158.237891 
L 385.629667 -158.041169 
L 388.844068 -157.84791 
L 392.05847 -157.740494 
L 395.272871 -157.634241 
L 398.487273 -157.886439 
L 398.487273 -152.635481 
L 398.487273 -152.635481 
L 395.272871 -152.322783 
L 392.05847 -152.420173 
L 388.844068 -152.518367 
L 385.629667 -152.697216 
L 382.415266 -152.878503 
L 379.200864 -152.980461 
L 375.986463 -152.660837 
L 372.772061 -152.764584 
L 369.55766 -152.432001 
L 366.343258 -152.622792 
L 363.128857 -152.277345 
L 359.914455 -152.385569 
L 356.700054 -152.494807 
L 353.485653 -152.693961 
L 350.271251 -152.806067 
L 347.05685 -152.449848 
L 343.842448 -152.564098 
L 340.628047 -152.772416 
L 337.413645 -152.984177 
L 334.199244 -153.199556 
L 330.984842 -152.834315 
L 327.770441 -152.451036 
L 324.55604 -152.048077 
L 321.341638 -152.274683 
L 318.127237 -151.852999 
L 314.912835 -152.086433 
L 311.698434 -151.64431 
L 308.484032 -151.777142 
L 305.269631 -151.911517 
L 302.05523 -152.047485 
L 298.840828 -152.296359 
L 295.626427 -152.550192 
L 292.412025 -152.693792 
L 289.197624 -152.238537 
L 285.983222 -151.755811 
L 282.768821 -151.904471 
L 279.554419 -151.393011 
L 276.340018 -150.847799 
L 273.125617 -151.001981 
L 269.911215 -151.285801 
L 266.696814 -151.445812 
L 263.482412 -150.870909 
L 260.268011 -151.16942 
L 257.053609 -151.33787 
L 253.839208 -151.508876 
L 250.624806 -151.682537 
L 247.410405 -152.001936 
L 244.196004 -152.329829 
L 240.981602 -152.666829 
L 237.767201 -152.859305 
L 234.552799 -152.270799 
L 231.338398 -151.462937 
L 228.123996 -151.660587 
L 224.909595 -150.975002 
L 221.695194 -151.345423 
L 218.480792 -151.556176 
L 215.266391 -150.820062 
L 212.051989 -150.015003 
L 208.837588 -150.418162 
L 205.623186 -150.647285 
L 202.408785 -149.772706 
L 199.194383 -150.206157 
L 195.979982 -149.245198 
L 192.765581 -149.496187 
L 189.551179 -149.752986 
L 186.336778 -150.23242 
L 183.122376 -150.506753 
L 179.907975 -149.456087 
L 176.693573 -149.742629 
L 173.479172 -148.559818 
L 170.26477 -147.205606 
L 167.050369 -147.511358 
L 163.835968 -148.088925 
L 160.621566 -148.419819 
L 157.407165 -149.045008 
L 154.192763 -149.40615 
L 150.978362 -149.780122 
L 147.76396 -148.266791 
L 144.549559 -148.99347 
L 141.335158 -147.215603 
L 138.120756 -145.044371 
L 134.906355 -142.298396 
L 131.691953 -143.150371 
L 128.477552 -143.645067 
L 125.26315 -144.60675 
L 122.048749 -145.172568 
L 118.834347 -145.770212 
L 115.619946 -146.943064 
L 112.405545 -148.253126 
L 109.191143 -149.064155 
L 105.976742 -145.670868 
L 102.76234 -140.691574 
L 99.547939 -142.485386 
L 96.333537 -144.621519 
L 93.119136 -136.432372 
L 89.904734 -137.929336 
L 86.690333 -139.706922 
L 83.475932 -143.84529 
L 80.26153 -125.08814 
L 77.047129 -127.772948 
L 73.832727 -136.687408 
z
" id="m9520358689" style="stroke:#1f77b4;stroke-opacity:0.3;"/>
    </defs>
    <g clip-path="url(#pb104094941)">
     <use style="fill:#1f77b4;fill-opacity:0.3;stroke:#1f77b4;stroke-opacity:0.3;" x="0" xlink:href="#m9520358689" y="345.6"/>
    </g>
   </g>
   <g id="PolyCollection_2">
    <defs>
     <path d="M 73.832727 -136.687408 
L 73.832727 -186.016402 
L 77.047129 -172.695164 
L 80.26153 -162.53729 
L 83.475932 -156.506202 
L 86.690333 -150.74617 
L 89.904734 -148.109652 
L 93.119136 -146.029215 
L 96.333537 -144.307655 
L 99.547939 -141.938024 
L 102.76234 -139.986612 
L 105.976742 -138.985062 
L 109.191143 -138.472362 
L 112.405545 -137.602511 
L 115.619946 -136.800064 
L 118.834347 -136.381392 
L 122.048749 -135.978178 
L 125.26315 -135.589236 
L 128.477552 -134.921085 
L 131.691953 -134.292681 
L 134.906355 -133.958603 
L 138.120756 -133.634155 
L 141.335158 -133.074704 
L 144.549559 -132.774772 
L 147.76396 -132.48254 
L 150.978362 -132.197606 
L 154.192763 -131.705816 
L 157.407165 -131.235664 
L 160.621566 -130.480131 
L 163.835968 -129.776064 
L 167.050369 -129.117039 
L 170.26477 -128.747418 
L 173.479172 -128.148926 
L 176.693573 -127.955828 
L 179.907975 -127.765843 
L 183.122376 -127.439103 
L 186.336778 -127.257426 
L 189.551179 -126.735711 
L 192.765581 -126.239362 
L 195.979982 -125.955656 
L 199.194383 -125.79644 
L 202.408785 -125.639317 
L 205.623186 -125.191114 
L 208.837588 -124.933218 
L 212.051989 -124.787579 
L 215.266391 -124.373861 
L 218.480792 -124.235225 
L 221.695194 -123.998789 
L 224.909595 -123.614677 
L 228.123996 -123.391463 
L 231.338398 -123.028968 
L 234.552799 -122.678961 
L 237.767201 -122.47437 
L 240.981602 -122.273523 
L 244.196004 -121.947719 
L 247.410405 -121.756418 
L 250.624806 -121.446315 
L 253.839208 -121.339185 
L 257.053609 -121.232979 
L 260.268011 -121.053627 
L 263.482412 -120.877146 
L 266.696814 -120.591491 
L 269.911215 -120.313649 
L 273.125617 -120.043204 
L 276.340018 -119.882558 
L 279.554419 -119.623033 
L 282.768821 -119.369966 
L 285.983222 -119.280596 
L 289.197624 -119.191862 
L 292.412025 -119.043181 
L 295.626427 -118.803444 
L 298.840828 -118.659978 
L 302.05523 -118.428867 
L 305.269631 -118.290254 
L 308.484032 -118.153344 
L 311.698434 -117.933082 
L 314.912835 -117.717487 
L 318.127237 -117.506362 
L 321.341638 -117.430302 
L 324.55604 -117.354698 
L 327.770441 -117.228981 
L 330.984842 -117.104663 
L 334.199244 -116.905247 
L 337.413645 -116.832942 
L 340.628047 -116.761049 
L 343.842448 -116.689563 
L 347.05685 -116.618479 
L 350.271251 -116.547793 
L 353.485653 -116.430668 
L 356.700054 -116.361063 
L 359.914455 -116.291841 
L 363.128857 -116.17727 
L 366.343258 -116.109084 
L 369.55766 -115.926928 
L 372.772061 -115.747978 
L 375.986463 -115.572123 
L 379.200864 -115.464871 
L 382.415266 -115.358634 
L 385.629667 -115.253394 
L 388.844068 -115.085571 
L 388.844068 -92.221291 
L 388.844068 -92.221291 
L 385.629667 -92.354853 
L 382.415266 -92.441887 
L 379.200864 -92.52973 
L 375.986463 -92.618396 
L 372.772061 -92.758176 
L 369.55766 -92.900297 
L 366.343258 -93.044839 
L 363.128857 -93.103561 
L 359.914455 -93.198012 
L 356.700054 -93.257618 
L 353.485653 -93.317559 
L 350.271251 -93.414114 
L 347.05685 -93.474977 
L 343.842448 -93.536188 
L 340.628047 -93.597751 
L 337.413645 -93.659671 
L 334.199244 -93.721951 
L 330.984842 -93.880151 
L 327.770441 -93.982557 
L 324.55604 -94.086085 
L 321.341638 -94.151107 
L 318.127237 -94.216526 
L 314.912835 -94.383814 
L 311.698434 -94.554463 
L 308.484032 -94.728613 
L 305.269631 -94.840953 
L 302.05523 -94.95465 
L 298.840828 -95.137058 
L 295.626427 -95.254538 
L 292.412025 -95.44346 
L 289.197624 -95.564992 
L 285.983222 -95.640714 
L 282.768821 -95.71698 
L 279.554419 -95.91611 
L 276.340018 -96.12004 
L 273.125617 -96.250905 
L 269.911215 -96.463017 
L 266.696814 -96.680596 
L 263.482412 -96.90394 
L 260.268011 -97.046887 
L 257.053609 -97.192064 
L 253.839208 -97.281762 
L 250.624806 -97.372234 
L 247.410405 -97.614028 
L 244.196004 -97.768446 
L 240.981602 -98.021854 
L 237.767201 -98.183502 
L 234.552799 -98.348024 
L 231.338398 -98.619331 
L 228.123996 -98.899714 
L 224.909595 -99.078174 
L 221.695194 -99.374349 
L 218.480792 -99.562666 
L 215.266391 -99.677728 
L 212.051989 -99.995599 
L 208.837588 -100.116054 
L 205.623186 -100.320486 
L 202.408785 -100.663487 
L 199.194383 -100.792743 
L 195.979982 -100.923658 
L 192.765581 -101.147304 
L 189.551179 -101.525344 
L 186.336778 -101.921412 
L 183.122376 -102.069224 
L 179.907975 -102.324209 
L 176.693573 -102.478318 
L 173.479172 -102.634823 
L 170.26477 -103.086231 
L 167.050369 -103.372292 
L 163.835968 -103.866376 
L 160.621566 -104.391932 
L 157.407165 -104.953327 
L 154.192763 -105.310078 
L 150.978362 -105.681892 
L 147.76396 -105.904661 
L 144.549559 -106.132669 
L 141.335158 -106.366178 
L 138.120756 -106.7851 
L 134.906355 -107.035724 
L 131.691953 -107.29307 
L 128.477552 -107.758937 
L 125.26315 -108.251228 
L 122.048749 -108.5456 
L 118.834347 -108.849458 
L 115.619946 -109.163467 
L 112.405545 -109.74315 
L 109.191143 -110.365014 
L 105.976742 -110.737923 
L 102.76234 -111.439225 
L 99.547939 -112.783084 
L 96.333537 -114.391397 
L 93.119136 -115.510584 
L 89.904734 -116.809487 
L 86.690333 -118.362884 
L 83.475932 -121.888286 
L 80.26153 -125.08814 
L 77.047129 -130.382039 
L 73.832727 -136.687408 
z
" id="mb4322f72a4" style="stroke:#ff7f0e;stroke-opacity:0.3;"/>
    </defs>
    <g clip-path="url(#pb104094941)">
     <use style="fill:#ff7f0e;fill-opacity:0.3;stroke:#ff7f0e;stroke-opacity:0.3;" x="0" xlink:href="#mb4322f72a4" y="345.6"/>
    </g>
   </g>
   <g id="PolyCollection_3">
    <defs>
     <path d="M 73.832727 -136.687408 
L 73.832727 -186.016402 
L 77.047129 -194.102048 
L 80.26153 -176.854588 
L 83.475932 -182.119504 
L 86.690333 -185.965008 
L 89.904734 -188.5708 
L 93.119136 -180.777196 
L 96.333537 -182.817216 
L 99.547939 -177.688132 
L 102.76234 -174.147322 
L 105.976742 -175.849716 
L 109.191143 -177.188997 
L 112.405545 -178.395606 
L 115.619946 -175.565861 
L 118.834347 -176.727129 
L 122.048749 -177.681317 
L 125.26315 -178.6766 
L 128.477552 -179.606283 
L 131.691953 -180.386314 
L 134.906355 -181.127256 
L 138.120756 -178.654944 
L 141.335158 -176.664488 
L 144.549559 -175.01897 
L 147.76396 -173.627465 
L 150.978362 -174.220048 
L 154.192763 -174.785517 
L 157.407165 -175.391891 
L 160.621566 -175.90986 
L 163.835968 -174.640634 
L 167.050369 -173.53255 
L 170.26477 -174.001339 
L 173.479172 -174.453211 
L 176.693573 -174.942438 
L 179.907975 -173.926021 
L 183.122376 -173.018379 
L 186.336778 -173.466408 
L 189.551179 -173.852598 
L 192.765581 -173.016498 
L 195.979982 -173.427035 
L 199.194383 -173.824664 
L 202.408785 -174.168826 
L 205.623186 -174.504139 
L 208.837588 -173.7142 
L 212.051989 -172.992966 
L 215.266391 -173.344531 
L 218.480792 -173.649691 
L 221.695194 -173.983909 
L 224.909595 -174.274567 
L 228.123996 -174.559052 
L 231.338398 -175.365049 
L 234.552799 -174.644039 
L 237.767201 -174.940256 
L 240.981602 -174.270435 
L 244.196004 -174.523925 
L 247.410405 -174.772698 
L 250.624806 -175.047069 
L 253.839208 -174.120692 
L 257.053609 -174.361265 
L 260.268011 -174.626659 
L 263.482412 -174.033564 
L 266.696814 -174.289454 
L 269.911215 -174.540707 
L 273.125617 -174.76052 
L 276.340018 -174.976974 
L 279.554419 -174.408308 
L 282.768821 -173.876574 
L 285.983222 -173.377521 
L 289.197624 -172.90749 
L 292.412025 -173.132663 
L 295.626427 -172.685852 
L 298.840828 -172.262506 
L 302.05523 -172.478683 
L 305.269631 -172.074309 
L 308.484032 -172.261787 
L 311.698434 -172.468723 
L 314.912835 -172.672183 
L 318.127237 -172.850573 
L 321.341638 -173.026407 
L 324.55604 -173.221026 
L 327.770441 -172.824673 
L 330.984842 -173.01427 
L 334.199244 -173.180706 
L 337.413645 -173.344992 
L 340.628047 -173.52715 
L 343.842448 -173.706879 
L 347.05685 -173.864827 
L 350.271251 -174.020975 
L 353.485653 -174.194468 
L 356.700054 -174.347043 
L 359.914455 -174.516722 
L 363.128857 -174.119685 
L 366.343258 -174.267013 
L 369.55766 -173.887177 
L 372.772061 -173.524799 
L 375.986463 -173.178358 
L 379.200864 -173.336627 
L 382.415266 -173.475896 
L 385.629667 -173.630716 
L 388.844068 -173.783827 
L 392.05847 -173.918636 
L 395.272871 -174.052165 
L 398.487273 -173.711347 
L 398.487273 -167.677409 
L 398.487273 -167.677409 
L 395.272871 -167.932869 
L 392.05847 -167.794291 
L 388.844068 -167.653958 
L 385.629667 -167.494485 
L 382.415266 -167.332702 
L 379.200864 -167.186314 
L 375.986463 -167.019893 
L 372.772061 -167.280198 
L 369.55766 -167.55003 
L 366.343258 -167.83022 
L 363.128857 -167.677375 
L 359.914455 -167.96797 
L 356.700054 -167.793056 
L 353.485653 -167.634784 
L 350.271251 -167.454659 
L 347.05685 -167.291496 
L 343.842448 -167.125874 
L 340.628047 -166.937275 
L 337.413645 -166.745406 
L 334.199244 -166.571204 
L 330.984842 -166.394106 
L 327.770441 -166.192274 
L 324.55604 -166.485269 
L 321.341638 -166.278624 
L 318.127237 -166.090616 
L 314.912835 -165.899184 
L 311.698434 -165.680775 
L 308.484032 -165.457795 
L 305.269631 -165.254325 
L 302.05523 -165.553793 
L 298.840828 -165.32048 
L 295.626427 -165.63144 
L 292.412025 -165.956073 
L 289.197624 -165.7152 
L 285.983222 -166.05352 
L 282.768821 -166.408345 
L 279.554419 -166.781565 
L 276.340018 -167.175425 
L 273.125617 -166.949793 
L 269.911215 -166.719556 
L 266.696814 -166.455959 
L 263.482412 -166.186072 
L 260.268011 -166.594698 
L 257.053609 -166.315949 
L 253.839208 -166.060978 
L 250.624806 -166.798185 
L 247.410405 -166.509859 
L 244.196004 -166.245917 
L 240.981602 -165.975379 
L 237.767201 -166.429638 
L 234.552799 -166.116142 
L 231.338398 -166.598323 
L 228.123996 -165.85615 
L 224.909595 -165.554187 
L 221.695194 -165.243642 
L 218.480792 -164.885636 
L 215.266391 -164.554966 
L 212.051989 -164.173059 
L 208.837588 -164.652554 
L 205.623186 -165.167063 
L 202.408785 -164.807245 
L 199.194383 -164.435004 
L 195.979982 -164.003488 
L 192.765581 -163.554068 
L 189.551179 -164.093605 
L 186.336778 -163.67037 
L 183.122376 -163.177433 
L 179.907975 -163.753109 
L 176.693573 -164.380872 
L 173.479172 -163.853296 
L 170.26477 -163.357766 
L 167.050369 -162.837692 
L 163.835968 -163.509641 
L 160.621566 -164.25496 
L 157.407165 -163.694567 
L 154.192763 -163.034007 
L 150.978362 -162.404488 
L 147.76396 -161.733967 
L 144.549559 -162.534665 
L 141.335158 -163.443046 
L 138.120756 -164.495489 
L 134.906355 -165.748111 
L 131.691953 -164.97545 
L 128.477552 -164.14927 
L 125.26315 -163.153912 
L 122.048749 -162.065731 
L 118.834347 -160.984131 
L 115.619946 -159.643383 
L 112.405545 -161.001988 
L 109.191143 -159.593282 
L 105.976742 -157.958319 
L 102.76234 -155.812119 
L 99.547939 -157.423938 
L 96.333537 -159.580741 
L 93.119136 -157.038759 
L 89.904734 -160.23011 
L 86.690333 -156.797279 
L 83.475932 -151.492549 
L 80.26153 -143.200038 
L 77.047129 -154.427258 
L 73.832727 -136.687408 
z
" id="mef1014b4c1" style="stroke:#2ca02c;stroke-opacity:0.3;"/>
    </defs>
    <g clip-path="url(#pb104094941)">
     <use style="fill:#2ca02c;fill-opacity:0.3;stroke:#2ca02c;stroke-opacity:0.3;" x="0" xlink:href="#mef1014b4c1" y="345.6"/>
    </g>
   </g>
   <g id="PolyCollection_4">
    <defs>
     <path d="M 73.832727 -136.687408 
L 73.832727 -186.016402 
L 77.047129 -193.622237 
L 80.26153 -197.595952 
L 83.475932 -200.268251 
L 86.690333 -202.325249 
L 89.904734 -205.055247 
L 93.119136 -207.235991 
L 96.333537 -209.058489 
L 99.547939 -210.630144 
L 102.76234 -211.368669 
L 105.976742 -212.148201 
L 109.191143 -212.880874 
L 112.405545 -214.044683 
L 115.619946 -214.677025 
L 118.834347 -215.215089 
L 122.048749 -216.191613 
L 125.26315 -217.100088 
L 128.477552 -217.55008 
L 131.691953 -217.985978 
L 134.906355 -218.784503 
L 138.120756 -219.18401 
L 141.335158 -219.572733 
L 144.549559 -219.951318 
L 147.76396 -220.647499 
L 150.978362 -221.310773 
L 154.192763 -221.647082 
L 157.407165 -221.976075 
L 160.621566 -222.3363 
L 163.835968 -222.928281 
L 167.050369 -223.49711 
L 170.26477 -223.822941 
L 173.479172 -224.35911 
L 176.693573 -224.667325 
L 179.907975 -224.937829 
L 183.122376 -225.2351 
L 186.336778 -225.496277 
L 189.551179 -225.783447 
L 192.765581 -226.035997 
L 195.979982 -226.31381 
L 199.194383 -226.558356 
L 202.408785 -226.799333 
L 205.623186 -227.24333 
L 208.837588 -227.50134 
L 212.051989 -227.926186 
L 215.266391 -228.17367 
L 218.480792 -228.392178 
L 221.695194 -228.632937 
L 224.909595 -228.845652 
L 228.123996 -221.273247 
L 231.338398 -221.538326 
L 234.552799 -221.978375 
L 237.767201 -222.407453 
L 240.981602 -222.656308 
L 244.196004 -222.901842 
L 247.410405 -223.118626 
L 250.624806 -223.358152 
L 253.839208 -223.755494 
L 257.053609 -223.962545 
L 260.268011 -224.191384 
L 263.482412 -224.417461 
L 266.696814 -224.640849 
L 269.911215 -225.011134 
L 273.125617 -225.373846 
L 276.340018 -225.729315 
L 279.554419 -226.07785 
L 282.768821 -226.282124 
L 285.983222 -226.620314 
L 289.197624 -226.952279 
L 292.412025 -227.278265 
L 295.626427 -227.469956 
L 298.840828 -227.659781 
L 302.05523 -227.828287 
L 305.269631 -228.014693 
L 308.484032 -228.180223 
L 311.698434 -228.363342 
L 314.912835 -228.544773 
L 318.127237 -228.724549 
L 321.341638 -229.021491 
L 324.55604 -229.17881 
L 327.770441 -229.334914 
L 330.984842 -229.507624 
L 334.199244 -229.661212 
L 337.413645 -229.831142 
L 340.628047 -229.982302 
L 343.842448 -230.132349 
L 347.05685 -230.281301 
L 350.271251 -230.429175 
L 353.485653 -230.575989 
L 356.700054 -230.845916 
L 359.914455 -230.989701 
L 363.128857 -231.148791 
L 366.343258 -231.410842 
L 369.55766 -231.669308 
L 372.772061 -231.924295 
L 375.986463 -232.076055 
L 379.200864 -232.211324 
L 382.415266 -232.360991 
L 385.629667 -232.509575 
L 388.844068 -232.657095 
L 392.05847 -232.803566 
L 395.272871 -233.044334 
L 395.272871 -208.995431 
L 395.272871 -208.995431 
L 392.05847 -208.743724 
L 388.844068 -208.593326 
L 385.629667 -208.441834 
L 382.415266 -208.289229 
L 379.200864 -208.135495 
L 375.986463 -207.997132 
L 372.772061 -207.841215 
L 369.55766 -207.574412 
L 366.343258 -207.303872 
L 363.128857 -207.029478 
L 359.914455 -206.865805 
L 356.700054 -206.718493 
L 353.485653 -206.435697 
L 350.271251 -206.285199 
L 347.05685 -206.133597 
L 343.842448 -205.980872 
L 340.628047 -205.827006 
L 337.413645 -205.67198 
L 334.199244 -205.496933 
L 330.984842 -205.339371 
L 327.770441 -205.161407 
L 324.55604 -205.001214 
L 321.341638 -204.839752 
L 318.127237 -204.528247 
L 314.912835 -204.342826 
L 311.698434 -204.155662 
L 308.484032 -203.966717 
L 305.269631 -203.796613 
L 302.05523 -203.604209 
L 298.840828 -203.43098 
L 295.626427 -203.234973 
L 292.412025 -203.036993 
L 289.197624 -202.694481 
L 285.983222 -202.34552 
L 282.768821 -201.989842 
L 279.554419 -201.778435 
L 276.340018 -201.411622 
L 273.125617 -201.037319 
L 269.911215 -200.655189 
L 266.696814 -200.26487 
L 263.482412 -200.032993 
L 260.268011 -199.798246 
L 257.053609 -199.560551 
L 253.839208 -199.346292 
L 250.624806 -198.926845 
L 247.410405 -198.677695 
L 244.196004 -198.453025 
L 240.981602 -198.197442 
L 237.767201 -197.938295 
L 234.552799 -197.484592 
L 231.338398 -197.018985 
L 228.123996 -196.742325 
L 224.909595 -201.828388 
L 221.695194 -201.592291 
L 218.480792 -201.323625 
L 215.266391 -201.080636 
L 212.051989 -200.803928 
L 208.837588 -200.320003 
L 205.623186 -200.030572 
L 202.408785 -199.523281 
L 199.194383 -199.253196 
L 195.979982 -198.978801 
L 192.765581 -198.665332 
L 189.551179 -198.381222 
L 186.336778 -198.056338 
L 183.122376 -197.761707 
L 179.907975 -197.424436 
L 176.693573 -197.118366 
L 173.479172 -196.7676 
L 170.26477 -196.146825 
L 167.050369 -195.774125 
L 163.835968 -195.112469 
L 160.621566 -194.421682 
L 157.407165 -194.005691 
L 154.192763 -193.626396 
L 150.978362 -193.237786 
L 147.76396 -192.456484 
L 144.549559 -191.633074 
L 141.335158 -191.190112 
L 138.120756 -190.733894 
L 134.906355 -190.263484 
L 131.691953 -189.307098 
L 128.477552 -188.788526 
L 125.26315 -188.250904 
L 122.048749 -187.148784 
L 118.834347 -185.955963 
L 115.619946 -185.298089 
L 112.405545 -184.517461 
L 109.191143 -183.0672 
L 105.976742 -182.142435 
L 102.76234 -181.146424 
L 99.547939 -180.190044 
L 96.333537 -178.141808 
L 93.119136 -175.721103 
L 89.904734 -172.765804 
L 86.690333 -169.003655 
L 83.475932 -165.848904 
L 80.26153 -161.379507 
L 77.047129 -153.805844 
L 73.832727 -136.687408 
z
" id="m73e8471dfc" style="stroke:#d62728;stroke-opacity:0.3;"/>
    </defs>
    <g clip-path="url(#pb104094941)">
     <use style="fill:#d62728;fill-opacity:0.3;stroke:#d62728;stroke-opacity:0.3;" x="0" xlink:href="#m73e8471dfc" y="345.6"/>
    </g>
   </g>
   <g id="matplotlib.axis_1">
    <g id="xtick_1">
     <g id="line2d_1">
      <defs>
       <path d="M 0 0 
L 0 3.5 
" id="mbb23364005" style="stroke:#000000;stroke-width:0.8;"/>
      </defs>
      <g>
       <use style="stroke:#000000;stroke-width:0.8;" x="73.832727" xlink:href="#mbb23364005" y="307.584"/>
      </g>
     </g>
     <g id="text_1">
      <!-- 0 -->
      <g transform="translate(70.651477 322.182437)scale(0.1 -0.1)">
       <defs>
        <path d="M 2034 4250 
Q 1547 4250 1301 3770 
Q 1056 3291 1056 2328 
Q 1056 1369 1301 889 
Q 1547 409 2034 409 
Q 2525 409 2770 889 
Q 3016 1369 3016 2328 
Q 3016 3291 2770 3770 
Q 2525 4250 2034 4250 
z
M 2034 4750 
Q 2819 4750 3233 4129 
Q 3647 3509 3647 2328 
Q 3647 1150 3233 529 
Q 2819 -91 2034 -91 
Q 1250 -91 836 529 
Q 422 1150 422 2328 
Q 422 3509 836 4129 
Q 1250 4750 2034 4750 
z
" id="DejaVuSans-30" transform="scale(0.015625)"/>
       </defs>
       <use xlink:href="#DejaVuSans-30"/>
      </g>
     </g>
    </g>
    <g id="xtick_2">
     <g id="line2d_2">
      <g>
       <use style="stroke:#000000;stroke-width:0.8;" x="138.120756" xlink:href="#mbb23364005" y="307.584"/>
      </g>
     </g>
     <g id="text_2">
      <!-- 20 -->
      <g transform="translate(131.758256 322.182437)scale(0.1 -0.1)">
       <defs>
        <path d="M 1228 531 
L 3431 531 
L 3431 0 
L 469 0 
L 469 531 
Q 828 903 1448 1529 
Q 2069 2156 2228 2338 
Q 2531 2678 2651 2914 
Q 2772 3150 2772 3378 
Q 2772 3750 2511 3984 
Q 2250 4219 1831 4219 
Q 1534 4219 1204 4116 
Q 875 4013 500 3803 
L 500 4441 
Q 881 4594 1212 4672 
Q 1544 4750 1819 4750 
Q 2544 4750 2975 4387 
Q 3406 4025 3406 3419 
Q 3406 3131 3298 2873 
Q 3191 2616 2906 2266 
Q 2828 2175 2409 1742 
Q 1991 1309 1228 531 
z
" id="DejaVuSans-32" transform="scale(0.015625)"/>
       </defs>
       <use xlink:href="#DejaVuSans-32"/>
       <use x="63.623047" xlink:href="#DejaVuSans-30"/>
      </g>
     </g>
    </g>
    <g id="xtick_3">
     <g id="line2d_3">
      <g>
       <use style="stroke:#000000;stroke-width:0.8;" x="202.408785" xlink:href="#mbb23364005" y="307.584"/>
      </g>
     </g>
     <g id="text_3">
      <!-- 40 -->
      <g transform="translate(196.046285 322.182437)scale(0.1 -0.1)">
       <defs>
        <path d="M 2419 4116 
L 825 1625 
L 2419 1625 
L 2419 4116 
z
M 2253 4666 
L 3047 4666 
L 3047 1625 
L 3713 1625 
L 3713 1100 
L 3047 1100 
L 3047 0 
L 2419 0 
L 2419 1100 
L 313 1100 
L 313 1709 
L 2253 4666 
z
" id="DejaVuSans-34" transform="scale(0.015625)"/>
       </defs>
       <use xlink:href="#DejaVuSans-34"/>
       <use x="63.623047" xlink:href="#DejaVuSans-30"/>
      </g>
     </g>
    </g>
    <g id="xtick_4">
     <g id="line2d_4">
      <g>
       <use style="stroke:#000000;stroke-width:0.8;" x="266.696814" xlink:href="#mbb23364005" y="307.584"/>
      </g>
     </g>
     <g id="text_4">
      <!-- 60 -->
      <g transform="translate(260.334314 322.182437)scale(0.1 -0.1)">
       <defs>
        <path d="M 2113 2584 
Q 1688 2584 1439 2293 
Q 1191 2003 1191 1497 
Q 1191 994 1439 701 
Q 1688 409 2113 409 
Q 2538 409 2786 701 
Q 3034 994 3034 1497 
Q 3034 2003 2786 2293 
Q 2538 2584 2113 2584 
z
M 3366 4563 
L 3366 3988 
Q 3128 4100 2886 4159 
Q 2644 4219 2406 4219 
Q 1781 4219 1451 3797 
Q 1122 3375 1075 2522 
Q 1259 2794 1537 2939 
Q 1816 3084 2150 3084 
Q 2853 3084 3261 2657 
Q 3669 2231 3669 1497 
Q 3669 778 3244 343 
Q 2819 -91 2113 -91 
Q 1303 -91 875 529 
Q 447 1150 447 2328 
Q 447 3434 972 4092 
Q 1497 4750 2381 4750 
Q 2619 4750 2861 4703 
Q 3103 4656 3366 4563 
z
" id="DejaVuSans-36" transform="scale(0.015625)"/>
       </defs>
       <use xlink:href="#DejaVuSans-36"/>
       <use x="63.623047" xlink:href="#DejaVuSans-30"/>
      </g>
     </g>
    </g>
    <g id="xtick_5">
     <g id="line2d_5">
      <g>
       <use style="stroke:#000000;stroke-width:0.8;" x="330.984842" xlink:href="#mbb23364005" y="307.584"/>
      </g>
     </g>
     <g id="text_5">
      <!-- 80 -->
      <g transform="translate(324.622342 322.182437)scale(0.1 -0.1)">
       <defs>
        <path d="M 2034 2216 
Q 1584 2216 1326 1975 
Q 1069 1734 1069 1313 
Q 1069 891 1326 650 
Q 1584 409 2034 409 
Q 2484 409 2743 651 
Q 3003 894 3003 1313 
Q 3003 1734 2745 1975 
Q 2488 2216 2034 2216 
z
M 1403 2484 
Q 997 2584 770 2862 
Q 544 3141 544 3541 
Q 544 4100 942 4425 
Q 1341 4750 2034 4750 
Q 2731 4750 3128 4425 
Q 3525 4100 3525 3541 
Q 3525 3141 3298 2862 
Q 3072 2584 2669 2484 
Q 3125 2378 3379 2068 
Q 3634 1759 3634 1313 
Q 3634 634 3220 271 
Q 2806 -91 2034 -91 
Q 1263 -91 848 271 
Q 434 634 434 1313 
Q 434 1759 690 2068 
Q 947 2378 1403 2484 
z
M 1172 3481 
Q 1172 3119 1398 2916 
Q 1625 2713 2034 2713 
Q 2441 2713 2670 2916 
Q 2900 3119 2900 3481 
Q 2900 3844 2670 4047 
Q 2441 4250 2034 4250 
Q 1625 4250 1398 4047 
Q 1172 3844 1172 3481 
z
" id="DejaVuSans-38" transform="scale(0.015625)"/>
       </defs>
       <use xlink:href="#DejaVuSans-38"/>
       <use x="63.623047" xlink:href="#DejaVuSans-30"/>
      </g>
     </g>
    </g>
    <g id="xtick_6">
     <g id="line2d_6">
      <g>
       <use style="stroke:#000000;stroke-width:0.8;" x="395.272871" xlink:href="#mbb23364005" y="307.584"/>
      </g>
     </g>
     <g id="text_6">
      <!-- 100 -->
      <g transform="translate(385.729121 322.182437)scale(0.1 -0.1)">
       <defs>
        <path d="M 794 531 
L 1825 531 
L 1825 4091 
L 703 3866 
L 703 4441 
L 1819 4666 
L 2450 4666 
L 2450 531 
L 3481 531 
L 3481 0 
L 794 0 
L 794 531 
z
" id="DejaVuSans-31" transform="scale(0.015625)"/>
       </defs>
       <use xlink:href="#DejaVuSans-31"/>
       <use x="63.623047" xlink:href="#DejaVuSans-30"/>
       <use x="127.246094" xlink:href="#DejaVuSans-30"/>
      </g>
     </g>
    </g>
    <g id="text_7">
     <!-- contest number -->
     <g transform="translate(196.477969 335.860562)scale(0.1 -0.1)">
      <defs>
       <path d="M 3122 3366 
L 3122 2828 
Q 2878 2963 2633 3030 
Q 2388 3097 2138 3097 
Q 1578 3097 1268 2742 
Q 959 2388 959 1747 
Q 959 1106 1268 751 
Q 1578 397 2138 397 
Q 2388 397 2633 464 
Q 2878 531 3122 666 
L 3122 134 
Q 2881 22 2623 -34 
Q 2366 -91 2075 -91 
Q 1284 -91 818 406 
Q 353 903 353 1747 
Q 353 2603 823 3093 
Q 1294 3584 2113 3584 
Q 2378 3584 2631 3529 
Q 2884 3475 3122 3366 
z
" id="DejaVuSans-63" transform="scale(0.015625)"/>
       <path d="M 1959 3097 
Q 1497 3097 1228 2736 
Q 959 2375 959 1747 
Q 959 1119 1226 758 
Q 1494 397 1959 397 
Q 2419 397 2687 759 
Q 2956 1122 2956 1747 
Q 2956 2369 2687 2733 
Q 2419 3097 1959 3097 
z
M 1959 3584 
Q 2709 3584 3137 3096 
Q 3566 2609 3566 1747 
Q 3566 888 3137 398 
Q 2709 -91 1959 -91 
Q 1206 -91 779 398 
Q 353 888 353 1747 
Q 353 2609 779 3096 
Q 1206 3584 1959 3584 
z
" id="DejaVuSans-6f" transform="scale(0.015625)"/>
       <path d="M 3513 2113 
L 3513 0 
L 2938 0 
L 2938 2094 
Q 2938 2591 2744 2837 
Q 2550 3084 2163 3084 
Q 1697 3084 1428 2787 
Q 1159 2491 1159 1978 
L 1159 0 
L 581 0 
L 581 3500 
L 1159 3500 
L 1159 2956 
Q 1366 3272 1645 3428 
Q 1925 3584 2291 3584 
Q 2894 3584 3203 3211 
Q 3513 2838 3513 2113 
z
" id="DejaVuSans-6e" transform="scale(0.015625)"/>
       <path d="M 1172 4494 
L 1172 3500 
L 2356 3500 
L 2356 3053 
L 1172 3053 
L 1172 1153 
Q 1172 725 1289 603 
Q 1406 481 1766 481 
L 2356 481 
L 2356 0 
L 1766 0 
Q 1100 0 847 248 
Q 594 497 594 1153 
L 594 3053 
L 172 3053 
L 172 3500 
L 594 3500 
L 594 4494 
L 1172 4494 
z
" id="DejaVuSans-74" transform="scale(0.015625)"/>
       <path d="M 3597 1894 
L 3597 1613 
L 953 1613 
Q 991 1019 1311 708 
Q 1631 397 2203 397 
Q 2534 397 2845 478 
Q 3156 559 3463 722 
L 3463 178 
Q 3153 47 2828 -22 
Q 2503 -91 2169 -91 
Q 1331 -91 842 396 
Q 353 884 353 1716 
Q 353 2575 817 3079 
Q 1281 3584 2069 3584 
Q 2775 3584 3186 3129 
Q 3597 2675 3597 1894 
z
M 3022 2063 
Q 3016 2534 2758 2815 
Q 2500 3097 2075 3097 
Q 1594 3097 1305 2825 
Q 1016 2553 972 2059 
L 3022 2063 
z
" id="DejaVuSans-65" transform="scale(0.015625)"/>
       <path d="M 2834 3397 
L 2834 2853 
Q 2591 2978 2328 3040 
Q 2066 3103 1784 3103 
Q 1356 3103 1142 2972 
Q 928 2841 928 2578 
Q 928 2378 1081 2264 
Q 1234 2150 1697 2047 
L 1894 2003 
Q 2506 1872 2764 1633 
Q 3022 1394 3022 966 
Q 3022 478 2636 193 
Q 2250 -91 1575 -91 
Q 1294 -91 989 -36 
Q 684 19 347 128 
L 347 722 
Q 666 556 975 473 
Q 1284 391 1588 391 
Q 1994 391 2212 530 
Q 2431 669 2431 922 
Q 2431 1156 2273 1281 
Q 2116 1406 1581 1522 
L 1381 1569 
Q 847 1681 609 1914 
Q 372 2147 372 2553 
Q 372 3047 722 3315 
Q 1072 3584 1716 3584 
Q 2034 3584 2315 3537 
Q 2597 3491 2834 3397 
z
" id="DejaVuSans-73" transform="scale(0.015625)"/>
       <path id="DejaVuSans-20" transform="scale(0.015625)"/>
       <path d="M 544 1381 
L 544 3500 
L 1119 3500 
L 1119 1403 
Q 1119 906 1312 657 
Q 1506 409 1894 409 
Q 2359 409 2629 706 
Q 2900 1003 2900 1516 
L 2900 3500 
L 3475 3500 
L 3475 0 
L 2900 0 
L 2900 538 
Q 2691 219 2414 64 
Q 2138 -91 1772 -91 
Q 1169 -91 856 284 
Q 544 659 544 1381 
z
M 1991 3584 
L 1991 3584 
z
" id="DejaVuSans-75" transform="scale(0.015625)"/>
       <path d="M 3328 2828 
Q 3544 3216 3844 3400 
Q 4144 3584 4550 3584 
Q 5097 3584 5394 3201 
Q 5691 2819 5691 2113 
L 5691 0 
L 5113 0 
L 5113 2094 
Q 5113 2597 4934 2840 
Q 4756 3084 4391 3084 
Q 3944 3084 3684 2787 
Q 3425 2491 3425 1978 
L 3425 0 
L 2847 0 
L 2847 2094 
Q 2847 2600 2669 2842 
Q 2491 3084 2119 3084 
Q 1678 3084 1418 2786 
Q 1159 2488 1159 1978 
L 1159 0 
L 581 0 
L 581 3500 
L 1159 3500 
L 1159 2956 
Q 1356 3278 1631 3431 
Q 1906 3584 2284 3584 
Q 2666 3584 2933 3390 
Q 3200 3197 3328 2828 
z
" id="DejaVuSans-6d" transform="scale(0.015625)"/>
       <path d="M 3116 1747 
Q 3116 2381 2855 2742 
Q 2594 3103 2138 3103 
Q 1681 3103 1420 2742 
Q 1159 2381 1159 1747 
Q 1159 1113 1420 752 
Q 1681 391 2138 391 
Q 2594 391 2855 752 
Q 3116 1113 3116 1747 
z
M 1159 2969 
Q 1341 3281 1617 3432 
Q 1894 3584 2278 3584 
Q 2916 3584 3314 3078 
Q 3713 2572 3713 1747 
Q 3713 922 3314 415 
Q 2916 -91 2278 -91 
Q 1894 -91 1617 61 
Q 1341 213 1159 525 
L 1159 0 
L 581 0 
L 581 4863 
L 1159 4863 
L 1159 2969 
z
" id="DejaVuSans-62" transform="scale(0.015625)"/>
       <path d="M 2631 2963 
Q 2534 3019 2420 3045 
Q 2306 3072 2169 3072 
Q 1681 3072 1420 2755 
Q 1159 2438 1159 1844 
L 1159 0 
L 581 0 
L 581 3500 
L 1159 3500 
L 1159 2956 
Q 1341 3275 1631 3429 
Q 1922 3584 2338 3584 
Q 2397 3584 2469 3576 
Q 2541 3569 2628 3553 
L 2631 2963 
z
" id="DejaVuSans-72" transform="scale(0.015625)"/>
      </defs>
      <use xlink:href="#DejaVuSans-63"/>
      <use x="54.980469" xlink:href="#DejaVuSans-6f"/>
      <use x="116.162109" xlink:href="#DejaVuSans-6e"/>
      <use x="179.541016" xlink:href="#DejaVuSans-74"/>
      <use x="218.75" xlink:href="#DejaVuSans-65"/>
      <use x="280.273438" xlink:href="#DejaVuSans-73"/>
      <use x="332.373047" xlink:href="#DejaVuSans-74"/>
      <use x="371.582031" xlink:href="#DejaVuSans-20"/>
      <use x="403.369141" xlink:href="#DejaVuSans-6e"/>
      <use x="466.748047" xlink:href="#DejaVuSans-75"/>
      <use x="530.126953" xlink:href="#DejaVuSans-6d"/>
      <use x="627.539062" xlink:href="#DejaVuSans-62"/>
      <use x="691.015625" xlink:href="#DejaVuSans-65"/>
      <use x="752.539062" xlink:href="#DejaVuSans-72"/>
     </g>
    </g>
   </g>
   <g id="matplotlib.axis_2">
    <g id="ytick_1">
     <g id="line2d_7">
      <defs>
       <path d="M 0 0 
L -3.5 0 
" id="me2b4051ba1" style="stroke:#000000;stroke-width:0.8;"/>
      </defs>
      <g>
       <use style="stroke:#000000;stroke-width:0.8;" x="57.6" xlink:href="#me2b4051ba1" y="307.584"/>
      </g>
     </g>
     <g id="text_8">
      <!-- 0 -->
      <g transform="translate(44.2375 311.383219)scale(0.1 -0.1)">
       <use xlink:href="#DejaVuSans-30"/>
      </g>
     </g>
    </g>
    <g id="ytick_2">
     <g id="line2d_8">
      <g>
       <use style="stroke:#000000;stroke-width:0.8;" x="57.6" xlink:href="#me2b4051ba1" y="254.3616"/>
      </g>
     </g>
     <g id="text_9">
      <!-- 20 -->
      <g transform="translate(37.875 258.160819)scale(0.1 -0.1)">
       <use xlink:href="#DejaVuSans-32"/>
       <use x="63.623047" xlink:href="#DejaVuSans-30"/>
      </g>
     </g>
    </g>
    <g id="ytick_3">
     <g id="line2d_9">
      <g>
       <use style="stroke:#000000;stroke-width:0.8;" x="57.6" xlink:href="#me2b4051ba1" y="201.1392"/>
      </g>
     </g>
     <g id="text_10">
      <!-- 40 -->
      <g transform="translate(37.875 204.938419)scale(0.1 -0.1)">
       <use xlink:href="#DejaVuSans-34"/>
       <use x="63.623047" xlink:href="#DejaVuSans-30"/>
      </g>
     </g>
    </g>
    <g id="ytick_4">
     <g id="line2d_10">
      <g>
       <use style="stroke:#000000;stroke-width:0.8;" x="57.6" xlink:href="#me2b4051ba1" y="147.9168"/>
      </g>
     </g>
     <g id="text_11">
      <!-- 60 -->
      <g transform="translate(37.875 151.716019)scale(0.1 -0.1)">
       <use xlink:href="#DejaVuSans-36"/>
       <use x="63.623047" xlink:href="#DejaVuSans-30"/>
      </g>
     </g>
    </g>
    <g id="ytick_5">
     <g id="line2d_11">
      <g>
       <use style="stroke:#000000;stroke-width:0.8;" x="57.6" xlink:href="#me2b4051ba1" y="94.6944"/>
      </g>
     </g>
     <g id="text_12">
      <!-- 80 -->
      <g transform="translate(37.875 98.493619)scale(0.1 -0.1)">
       <use xlink:href="#DejaVuSans-38"/>
       <use x="63.623047" xlink:href="#DejaVuSans-30"/>
      </g>
     </g>
    </g>
    <g id="ytick_6">
     <g id="line2d_12">
      <g>
       <use style="stroke:#000000;stroke-width:0.8;" x="57.6" xlink:href="#me2b4051ba1" y="41.472"/>
      </g>
     </g>
     <g id="text_13">
      <!-- 100 -->
      <g transform="translate(31.5125 45.271219)scale(0.1 -0.1)">
       <use xlink:href="#DejaVuSans-31"/>
       <use x="63.623047" xlink:href="#DejaVuSans-30"/>
       <use x="127.246094" xlink:href="#DejaVuSans-30"/>
      </g>
     </g>
    </g>
    <g id="text_14">
     <!-- Estimate -->
     <g transform="translate(25.432812 196.612375)rotate(-90)scale(0.1 -0.1)">
      <defs>
       <path d="M 628 4666 
L 3578 4666 
L 3578 4134 
L 1259 4134 
L 1259 2753 
L 3481 2753 
L 3481 2222 
L 1259 2222 
L 1259 531 
L 3634 531 
L 3634 0 
L 628 0 
L 628 4666 
z
" id="DejaVuSans-45" transform="scale(0.015625)"/>
       <path d="M 603 3500 
L 1178 3500 
L 1178 0 
L 603 0 
L 603 3500 
z
M 603 4863 
L 1178 4863 
L 1178 4134 
L 603 4134 
L 603 4863 
z
" id="DejaVuSans-69" transform="scale(0.015625)"/>
       <path d="M 2194 1759 
Q 1497 1759 1228 1600 
Q 959 1441 959 1056 
Q 959 750 1161 570 
Q 1363 391 1709 391 
Q 2188 391 2477 730 
Q 2766 1069 2766 1631 
L 2766 1759 
L 2194 1759 
z
M 3341 1997 
L 3341 0 
L 2766 0 
L 2766 531 
Q 2569 213 2275 61 
Q 1981 -91 1556 -91 
Q 1019 -91 701 211 
Q 384 513 384 1019 
Q 384 1609 779 1909 
Q 1175 2209 1959 2209 
L 2766 2209 
L 2766 2266 
Q 2766 2663 2505 2880 
Q 2244 3097 1772 3097 
Q 1472 3097 1187 3025 
Q 903 2953 641 2809 
L 641 3341 
Q 956 3463 1253 3523 
Q 1550 3584 1831 3584 
Q 2591 3584 2966 3190 
Q 3341 2797 3341 1997 
z
" id="DejaVuSans-61" transform="scale(0.015625)"/>
      </defs>
      <use xlink:href="#DejaVuSans-45"/>
      <use x="63.183594" xlink:href="#DejaVuSans-73"/>
      <use x="115.283203" xlink:href="#DejaVuSans-74"/>
      <use x="154.492188" xlink:href="#DejaVuSans-69"/>
      <use x="182.275391" xlink:href="#DejaVuSans-6d"/>
      <use x="279.6875" xlink:href="#DejaVuSans-61"/>
      <use x="340.966797" xlink:href="#DejaVuSans-74"/>
      <use x="380.175781" xlink:href="#DejaVuSans-65"/>
     </g>
    </g>
   </g>
   <g id="line2d_13">
    <path clip-path="url(#pb104094941)" d="M 73.832727 184.308549 
L 77.047129 195.715635 
L 80.26153 199.187356 
L 83.475932 186.29239 
L 86.690333 190.756032 
L 89.904734 192.739873 
L 93.119136 194.723714 
L 96.333537 189.764112 
L 99.547939 191.747953 
L 102.76234 193.731794 
L 105.976742 190.756032 
L 109.191143 188.276231 
L 112.405545 189.268152 
L 115.619946 190.756032 
L 118.834347 191.747953 
L 122.048749 192.243913 
L 125.26315 193.235834 
L 128.477552 194.227754 
L 131.691953 194.723714 
L 134.906355 195.715635 
L 138.120756 193.731794 
L 141.335158 191.747953 
L 144.549559 190.756032 
L 147.76396 191.251993 
L 150.978362 190.260072 
L 154.192763 190.756032 
L 157.407165 190.756032 
L 160.621566 191.251993 
L 163.835968 191.747953 
L 167.050369 192.243913 
L 170.26477 192.739873 
L 173.479172 191.747953 
L 176.693573 190.756032 
L 179.907975 191.251993 
L 183.122376 190.260072 
L 186.336778 190.756032 
L 189.551179 191.251993 
L 192.765581 191.251993 
L 195.979982 191.747953 
L 199.194383 190.756032 
L 202.408785 191.251993 
L 205.623186 190.756032 
L 208.837588 190.756032 
L 212.051989 191.251993 
L 215.266391 190.756032 
L 218.480792 189.764112 
L 221.695194 190.260072 
L 224.909595 190.756032 
L 228.123996 189.764112 
L 231.338398 190.260072 
L 234.552799 189.268152 
L 237.767201 189.268152 
L 240.981602 189.268152 
L 244.196004 189.764112 
L 247.410405 189.764112 
L 250.624806 190.260072 
L 253.839208 190.260072 
L 257.053609 190.756032 
L 260.268011 190.756032 
L 263.482412 190.756032 
L 266.696814 190.756032 
L 269.911215 190.756032 
L 273.125617 190.756032 
L 276.340018 191.251993 
L 279.554419 190.756032 
L 282.768821 190.260072 
L 285.983222 190.260072 
L 289.197624 190.260072 
L 292.412025 189.764112 
L 295.626427 189.764112 
L 298.840828 190.260072 
L 302.05523 190.260072 
L 305.269631 190.260072 
L 308.484032 190.756032 
L 311.698434 190.756032 
L 314.912835 190.260072 
L 318.127237 190.756032 
L 321.341638 190.260072 
L 324.55604 190.260072 
L 327.770441 190.260072 
L 330.984842 189.764112 
L 334.199244 189.268152 
L 337.413645 189.764112 
L 340.628047 189.764112 
L 343.842448 190.260072 
L 347.05685 190.260072 
L 350.271251 189.764112 
L 353.485653 189.764112 
L 356.700054 190.260072 
L 359.914455 190.260072 
L 363.128857 190.260072 
L 366.343258 190.260072 
L 369.55766 190.260072 
L 372.772061 190.260072 
L 375.986463 190.260072 
L 379.200864 189.764112 
L 382.415266 189.764112 
L 385.629667 190.260072 
L 388.844068 190.260072 
L 392.05847 190.260072 
L 395.272871 190.756032 
L 398.487273 190.260072 
" style="fill:none;stroke:#1f77b4;stroke-linecap:square;stroke-width:1.5;"/>
   </g>
   <g id="line2d_14">
    <path clip-path="url(#pb104094941)" d="M 57.6 189.738767 
L 414.72 189.738767 
" style="fill:none;stroke:#1f77b4;stroke-linecap:square;stroke-width:1.5;"/>
   </g>
   <g id="line2d_15">
    <path clip-path="url(#pb104094941)" d="M 73.832727 184.308549 
L 77.047129 192.243913 
L 80.26153 199.187356 
L 83.475932 203.155038 
L 86.690333 207.618681 
L 89.904734 209.106561 
L 93.119136 211.090402 
L 96.333537 212.082323 
L 99.547939 214.066164 
L 102.76234 216.050005 
L 105.976742 216.545965 
L 109.191143 217.041925 
L 112.405545 218.033846 
L 115.619946 218.529806 
L 118.834347 219.025766 
L 122.048749 219.521726 
L 125.26315 219.521726 
L 128.477552 220.017687 
L 131.691953 221.009607 
L 134.906355 221.009607 
L 138.120756 221.505567 
L 141.335158 222.001528 
L 144.549559 222.001528 
L 147.76396 222.497488 
L 150.978362 222.497488 
L 154.192763 222.993448 
L 157.407165 223.489408 
L 160.621566 223.985368 
L 163.835968 224.977289 
L 167.050369 225.473249 
L 170.26477 225.969209 
L 173.479172 226.46517 
L 176.693573 226.46517 
L 179.907975 226.46517 
L 183.122376 226.96113 
L 186.336778 226.96113 
L 189.551179 227.45709 
L 192.765581 227.95305 
L 195.979982 228.449011 
L 199.194383 228.449011 
L 202.408785 228.449011 
L 205.623186 228.944971 
L 208.837588 229.440931 
L 212.051989 229.440931 
L 215.266391 229.936891 
L 218.480792 229.936891 
L 221.695194 229.936891 
L 224.909595 230.432852 
L 228.123996 230.432852 
L 231.338398 230.928812 
L 234.552799 231.424772 
L 237.767201 231.424772 
L 240.981602 231.920732 
L 244.196004 231.920732 
L 247.410405 231.920732 
L 250.624806 232.416693 
L 253.839208 232.416693 
L 257.053609 232.416693 
L 260.268011 232.912653 
L 263.482412 232.912653 
L 266.696814 233.408613 
L 269.911215 233.408613 
L 273.125617 233.904573 
L 276.340018 233.904573 
L 279.554419 233.904573 
L 282.768821 234.400534 
L 285.983222 234.400534 
L 289.197624 234.400534 
L 292.412025 234.896494 
L 295.626427 234.896494 
L 298.840828 234.896494 
L 302.05523 235.392454 
L 305.269631 235.392454 
L 308.484032 235.392454 
L 311.698434 235.888414 
L 314.912835 235.888414 
L 318.127237 235.888414 
L 321.341638 236.384375 
L 324.55604 236.384375 
L 327.770441 236.384375 
L 330.984842 236.384375 
L 334.199244 236.880335 
L 337.413645 236.880335 
L 340.628047 236.880335 
L 343.842448 236.880335 
L 347.05685 236.880335 
L 350.271251 236.880335 
L 353.485653 236.880335 
L 356.700054 237.376295 
L 359.914455 237.376295 
L 363.128857 237.376295 
L 366.343258 237.376295 
L 369.55766 237.376295 
L 372.772061 237.872255 
L 375.986463 237.872255 
L 379.200864 237.872255 
L 382.415266 238.368215 
L 385.629667 238.368215 
L 388.844068 238.368215 
" style="fill:none;stroke:#ff7f0e;stroke-linecap:square;stroke-width:1.5;"/>
   </g>
   <g id="line2d_16">
    <path clip-path="url(#pb104094941)" d="M 57.6 191.495533 
L 414.72 191.495533 
" style="fill:none;stroke:#ff7f0e;stroke-linecap:square;stroke-width:1.5;"/>
   </g>
   <g id="line2d_17">
    <path clip-path="url(#pb104094941)" d="M 73.832727 184.308549 
L 77.047129 174.389344 
L 80.26153 187.780271 
L 83.475932 182.324708 
L 86.690333 178.357026 
L 89.904734 175.381265 
L 93.119136 179.348947 
L 96.333537 177.365106 
L 99.547939 179.844907 
L 102.76234 181.828748 
L 105.976742 180.340867 
L 109.191143 178.852987 
L 112.405545 177.365106 
L 115.619946 179.348947 
L 118.834347 177.861066 
L 122.048749 176.869146 
L 125.26315 175.877225 
L 128.477552 175.381265 
L 131.691953 174.389344 
L 134.906355 173.893384 
L 138.120756 175.381265 
L 141.335158 176.373185 
L 144.549559 177.861066 
L 147.76396 178.357026 
L 150.978362 177.861066 
L 154.192763 177.365106 
L 157.407165 176.869146 
L 160.621566 176.373185 
L 163.835968 177.365106 
L 167.050369 177.861066 
L 170.26477 177.365106 
L 173.479172 176.869146 
L 176.693573 176.373185 
L 179.907975 177.365106 
L 183.122376 177.861066 
L 186.336778 177.365106 
L 189.551179 177.365106 
L 192.765581 177.861066 
L 195.979982 177.365106 
L 199.194383 176.869146 
L 202.408785 176.373185 
L 205.623186 176.373185 
L 208.837588 176.869146 
L 212.051989 177.365106 
L 215.266391 176.869146 
L 218.480792 176.869146 
L 221.695194 176.373185 
L 224.909595 175.877225 
L 228.123996 175.877225 
L 231.338398 174.885305 
L 234.552799 175.381265 
L 237.767201 175.381265 
L 240.981602 175.877225 
L 244.196004 175.381265 
L 247.410405 175.381265 
L 250.624806 174.885305 
L 253.839208 175.877225 
L 257.053609 175.381265 
L 260.268011 175.381265 
L 263.482412 175.877225 
L 266.696814 175.381265 
L 269.911215 175.381265 
L 273.125617 174.885305 
L 276.340018 174.885305 
L 279.554419 175.381265 
L 282.768821 175.877225 
L 285.983222 176.373185 
L 289.197624 176.373185 
L 292.412025 176.373185 
L 295.626427 176.869146 
L 298.840828 176.869146 
L 302.05523 176.869146 
L 305.269631 177.365106 
L 308.484032 176.869146 
L 311.698434 176.869146 
L 314.912835 176.373185 
L 318.127237 176.373185 
L 321.341638 176.373185 
L 324.55604 175.877225 
L 327.770441 176.373185 
L 330.984842 175.877225 
L 334.199244 175.877225 
L 337.413645 175.877225 
L 340.628047 175.381265 
L 343.842448 175.381265 
L 347.05685 175.381265 
L 350.271251 174.885305 
L 353.485653 174.885305 
L 356.700054 174.885305 
L 359.914455 174.389344 
L 363.128857 174.885305 
L 366.343258 174.885305 
L 369.55766 174.885305 
L 372.772061 175.381265 
L 375.986463 175.877225 
L 379.200864 175.381265 
L 382.415266 175.381265 
L 385.629667 175.381265 
L 388.844068 174.885305 
L 392.05847 174.885305 
L 395.272871 174.885305 
L 398.487273 174.885305 
" style="fill:none;stroke:#2ca02c;stroke-linecap:square;stroke-width:1.5;"/>
   </g>
   <g id="line2d_18">
    <path clip-path="url(#pb104094941)" d="M 57.6 181.367167 
L 414.72 181.367167 
" style="fill:none;stroke:#2ca02c;stroke-linecap:square;stroke-width:1.5;"/>
   </g>
   <g id="line2d_19">
    <path clip-path="url(#pb104094941)" d="M 73.832727 184.308549 
L 77.047129 175.381265 
L 80.26153 170.421663 
L 83.475932 166.949941 
L 86.690333 164.47014 
L 89.904734 160.998418 
L 93.119136 158.518617 
L 96.333537 156.038816 
L 99.547939 154.550935 
L 102.76234 153.559014 
L 105.976742 152.567094 
L 109.191143 151.575173 
L 112.405545 150.583253 
L 115.619946 149.591332 
L 118.834347 149.095372 
L 122.048749 148.103452 
L 125.26315 146.615571 
L 128.477552 146.119611 
L 131.691953 145.623651 
L 134.906355 145.12769 
L 138.120756 144.63173 
L 141.335158 144.13577 
L 144.549559 143.63981 
L 147.76396 142.647889 
L 150.978362 142.151929 
L 154.192763 141.655969 
L 157.407165 141.160008 
L 160.621566 141.160008 
L 163.835968 140.168088 
L 167.050369 139.672128 
L 170.26477 139.176167 
L 173.479172 138.680207 
L 176.693573 138.184247 
L 179.907975 138.184247 
L 183.122376 137.688287 
L 186.336778 137.192326 
L 189.551179 137.192326 
L 192.765581 136.696366 
L 195.979982 136.696366 
L 199.194383 136.200406 
L 202.408785 136.200406 
L 205.623186 135.704446 
L 208.837588 135.208485 
L 212.051989 134.712525 
L 215.266391 134.216565 
L 218.480792 134.216565 
L 221.695194 133.720605 
L 224.909595 133.720605 
L 228.123996 140.168088 
L 231.338398 139.672128 
L 234.552799 139.176167 
L 237.767201 138.680207 
L 240.981602 138.680207 
L 244.196004 138.184247 
L 247.410405 138.184247 
L 250.624806 137.688287 
L 253.839208 137.192326 
L 257.053609 137.192326 
L 260.268011 136.696366 
L 263.482412 136.696366 
L 266.696814 136.200406 
L 269.911215 136.200406 
L 273.125617 135.704446 
L 276.340018 135.208485 
L 279.554419 134.712525 
L 282.768821 134.712525 
L 285.983222 134.216565 
L 289.197624 133.720605 
L 292.412025 133.720605 
L 295.626427 133.224644 
L 298.840828 133.224644 
L 302.05523 133.224644 
L 305.269631 132.728684 
L 308.484032 132.728684 
L 311.698434 132.232724 
L 314.912835 132.232724 
L 318.127237 132.232724 
L 321.341638 131.736764 
L 324.55604 131.736764 
L 327.770441 131.240804 
L 330.984842 131.240804 
L 334.199244 131.240804 
L 337.413645 130.744843 
L 340.628047 130.744843 
L 343.842448 130.744843 
L 347.05685 130.248883 
L 350.271251 130.248883 
L 353.485653 130.248883 
L 356.700054 129.752923 
L 359.914455 129.752923 
L 363.128857 129.752923 
L 366.343258 129.256963 
L 369.55766 129.256963 
L 372.772061 128.761002 
L 375.986463 128.761002 
L 379.200864 128.265042 
L 382.415266 128.265042 
L 385.629667 128.265042 
L 388.844068 127.769082 
L 392.05847 127.769082 
L 395.272871 127.769082 
" style="fill:none;stroke:#d62728;stroke-linecap:square;stroke-width:1.5;"/>
   </g>
   <g id="line2d_20">
    <path clip-path="url(#pb104094941)" d="M 57.6 171.308569 
L 414.72 171.308569 
" style="fill:none;stroke:#d62728;stroke-linecap:square;stroke-width:1.5;"/>
   </g>
   <g id="patch_3">
    <path d="M 57.6 307.584 
L 57.6 41.472 
" style="fill:none;stroke:#000000;stroke-linecap:square;stroke-linejoin:miter;stroke-width:0.8;"/>
   </g>
   <g id="patch_4">
    <path d="M 414.72 307.584 
L 414.72 41.472 
" style="fill:none;stroke:#000000;stroke-linecap:square;stroke-linejoin:miter;stroke-width:0.8;"/>
   </g>
   <g id="patch_5">
    <path d="M 57.6 307.584 
L 414.72 307.584 
" style="fill:none;stroke:#000000;stroke-linecap:square;stroke-linejoin:miter;stroke-width:0.8;"/>
   </g>
   <g id="patch_6">
    <path d="M 57.6 41.472 
L 414.72 41.472 
" style="fill:none;stroke:#000000;stroke-linecap:square;stroke-linejoin:miter;stroke-width:0.8;"/>
   </g>
   <g id="legend_1">
    <g id="patch_7">
     <path d="M 369.3575 108.1845 
L 407.72 108.1845 
Q 409.72 108.1845 409.72 106.1845 
L 409.72 48.472 
Q 409.72 46.472 407.72 46.472 
L 369.3575 46.472 
Q 367.3575 46.472 367.3575 48.472 
L 367.3575 106.1845 
Q 367.3575 108.1845 369.3575 108.1845 
z
" style="fill:#ffffff;opacity:0.8;stroke:#cccccc;stroke-linejoin:miter;"/>
    </g>
    <g id="line2d_21">
     <path d="M 371.3575 54.570438 
L 391.3575 54.570438 
" style="fill:none;stroke:#1f77b4;stroke-linecap:square;stroke-width:1.5;"/>
    </g>
    <g id="line2d_22"/>
    <g id="text_15">
     <!-- 0 -->
     <g transform="translate(399.3575 58.070438)scale(0.1 -0.1)">
      <use xlink:href="#DejaVuSans-30"/>
     </g>
    </g>
    <g id="line2d_23">
     <path d="M 371.3575 69.248563 
L 391.3575 69.248563 
" style="fill:none;stroke:#ff7f0e;stroke-linecap:square;stroke-width:1.5;"/>
    </g>
    <g id="line2d_24"/>
    <g id="text_16">
     <!-- 1 -->
     <g transform="translate(399.3575 72.748563)scale(0.1 -0.1)">
      <use xlink:href="#DejaVuSans-31"/>
     </g>
    </g>
    <g id="line2d_25">
     <path d="M 371.3575 83.926688 
L 391.3575 83.926688 
" style="fill:none;stroke:#2ca02c;stroke-linecap:square;stroke-width:1.5;"/>
    </g>
    <g id="line2d_26"/>
    <g id="text_17">
     <!-- 2 -->
     <g transform="translate(399.3575 87.426688)scale(0.1 -0.1)">
      <use xlink:href="#DejaVuSans-32"/>
     </g>
    </g>
    <g id="line2d_27">
     <path d="M 371.3575 98.604813 
L 391.3575 98.604813 
" style="fill:none;stroke:#d62728;stroke-linecap:square;stroke-width:1.5;"/>
    </g>
    <g id="line2d_28"/>
    <g id="text_18">
     <!-- 3 -->
     <g transform="translate(399.3575 102.104813)scale(0.1 -0.1)">
      <defs>
       <path d="M 2597 2516 
Q 3050 2419 3304 2112 
Q 3559 1806 3559 1356 
Q 3559 666 3084 287 
Q 2609 -91 1734 -91 
Q 1441 -91 1130 -33 
Q 819 25 488 141 
L 488 750 
Q 750 597 1062 519 
Q 1375 441 1716 441 
Q 2309 441 2620 675 
Q 2931 909 2931 1356 
Q 2931 1769 2642 2001 
Q 2353 2234 1838 2234 
L 1294 2234 
L 1294 2753 
L 1863 2753 
Q 2328 2753 2575 2939 
Q 2822 3125 2822 3475 
Q 2822 3834 2567 4026 
Q 2313 4219 1838 4219 
Q 1578 4219 1281 4162 
Q 984 4106 628 3988 
L 628 4550 
Q 988 4650 1302 4700 
Q 1616 4750 1894 4750 
Q 2613 4750 3031 4423 
Q 3450 4097 3450 3541 
Q 3450 3153 3228 2886 
Q 3006 2619 2597 2516 
z
" id="DejaVuSans-33" transform="scale(0.015625)"/>
      </defs>
      <use xlink:href="#DejaVuSans-33"/>
     </g>
    </g>
   </g>
  </g>
 </g>
 <defs>
  <clipPath id="pb104094941">
   <rect height="266.112" width="357.12" x="57.6" y="41.472"/>
  </clipPath>
 </defs>
</svg>
