<?xml version="1.0" encoding="utf-8" standalone="no"?>
<!DOCTYPE svg PUBLIC "-//W3C//DTD SVG 1.1//EN"
  "http://www.w3.org/Graphics/SVG/1.1/DTD/svg11.dtd">
<svg height="345.6pt" version="1.1" viewBox="0 0 460.8 345.6" width="460.8pt" xmlns="http://www.w3.org/2000/svg" xmlns:xlink="http://www.w3.org/1999/xlink">
 <metadata>
  <rdf:RDF xmlns:cc="http://creativecommons.org/ns#" xmlns:dc="http://purl.org/dc/elements/1.1/" xmlns:rdf="http://www.w3.org/1999/02/22-rdf-syntax-ns#">
   <cc:Work>
    <dc:type rdf:resource="http://purl.org/dc/dcmitype/StillImage"/>
    <dc:date>2022-07-12T08:36:07.536584</dc:date>
    <dc:format>image/svg+xml</dc:format>
    <dc:creator>
     <cc:Agent>
      <dc:title>Matplotlib v3.4.3, https://matplotlib.org/</dc:title>
     </cc:Agent>
    </dc:creator>
   </cc:Work>
  </rdf:RDF>
 </metadata>
 <defs>
  <style type="text/css">*{stroke-linecap:butt;stroke-linejoin:round;}</style>
 </defs>
 <g id="figure_1">
  <g id="patch_1">
   <path d="M 0 345.6 
L 460.8 345.6 
L 460.8 0 
L 0 0 
z
" style="fill:#ffffff;"/>
  </g>
  <g id="axes_1">
   <g id="patch_2">
    <path d="M 57.6 307.584 
L 414.72 307.584 
L 414.72 41.472 
L 57.6 41.472 
z
" style="fill:#ffffff;"/>
   </g>
   <g id="matplotlib.axis_1">
    <g id="xtick_1">
     <g id="line2d_1">
      <defs>
       <path d="M 0 0 
L 0 3.5 
" id="mc12ce27427" style="stroke:#000000;stroke-width:0.8;"/>
      </defs>
      <g>
       <use style="stroke:#000000;stroke-width:0.8;" x="73.832727" xlink:href="#mc12ce27427" y="307.584"/>
      </g>
     </g>
     <g id="text_1">
      <!-- 0 -->
      <g transform="translate(70.651477 322.182437)scale(0.1 -0.1)">
       <defs>
        <path d="M 2034 4250 
Q 1547 4250 1301 3770 
Q 1056 3291 1056 2328 
Q 1056 1369 1301 889 
Q 1547 409 2034 409 
Q 2525 409 2770 889 
Q 3016 1369 3016 2328 
Q 3016 3291 2770 3770 
Q 2525 4250 2034 4250 
z
M 2034 4750 
Q 2819 4750 3233 4129 
Q 3647 3509 3647 2328 
Q 3647 1150 3233 529 
Q 2819 -91 2034 -91 
Q 1250 -91 836 529 
Q 422 1150 422 2328 
Q 422 3509 836 4129 
Q 1250 4750 2034 4750 
z
" id="DejaVuSans-30" transform="scale(0.015625)"/>
       </defs>
       <use xlink:href="#DejaVuSans-30"/>
      </g>
     </g>
    </g>
    <g id="xtick_2">
     <g id="line2d_2">
      <g>
       <use style="stroke:#000000;stroke-width:0.8;" x="133.953939" xlink:href="#mc12ce27427" y="307.584"/>
      </g>
     </g>
     <g id="text_2">
      <!-- 20 -->
      <g transform="translate(127.591439 322.182437)scale(0.1 -0.1)">
       <defs>
        <path d="M 1228 531 
L 3431 531 
L 3431 0 
L 469 0 
L 469 531 
Q 828 903 1448 1529 
Q 2069 2156 2228 2338 
Q 2531 2678 2651 2914 
Q 2772 3150 2772 3378 
Q 2772 3750 2511 3984 
Q 2250 4219 1831 4219 
Q 1534 4219 1204 4116 
Q 875 4013 500 3803 
L 500 4441 
Q 881 4594 1212 4672 
Q 1544 4750 1819 4750 
Q 2544 4750 2975 4387 
Q 3406 4025 3406 3419 
Q 3406 3131 3298 2873 
Q 3191 2616 2906 2266 
Q 2828 2175 2409 1742 
Q 1991 1309 1228 531 
z
" id="DejaVuSans-32" transform="scale(0.015625)"/>
       </defs>
       <use xlink:href="#DejaVuSans-32"/>
       <use x="63.623047" xlink:href="#DejaVuSans-30"/>
      </g>
     </g>
    </g>
    <g id="xtick_3">
     <g id="line2d_3">
      <g>
       <use style="stroke:#000000;stroke-width:0.8;" x="194.075152" xlink:href="#mc12ce27427" y="307.584"/>
      </g>
     </g>
     <g id="text_3">
      <!-- 40 -->
      <g transform="translate(187.712652 322.182437)scale(0.1 -0.1)">
       <defs>
        <path d="M 2419 4116 
L 825 1625 
L 2419 1625 
L 2419 4116 
z
M 2253 4666 
L 3047 4666 
L 3047 1625 
L 3713 1625 
L 3713 1100 
L 3047 1100 
L 3047 0 
L 2419 0 
L 2419 1100 
L 313 1100 
L 313 1709 
L 2253 4666 
z
" id="DejaVuSans-34" transform="scale(0.015625)"/>
       </defs>
       <use xlink:href="#DejaVuSans-34"/>
       <use x="63.623047" xlink:href="#DejaVuSans-30"/>
      </g>
     </g>
    </g>
    <g id="xtick_4">
     <g id="line2d_4">
      <g>
       <use style="stroke:#000000;stroke-width:0.8;" x="254.196364" xlink:href="#mc12ce27427" y="307.584"/>
      </g>
     </g>
     <g id="text_4">
      <!-- 60 -->
      <g transform="translate(247.833864 322.182437)scale(0.1 -0.1)">
       <defs>
        <path d="M 2113 2584 
Q 1688 2584 1439 2293 
Q 1191 2003 1191 1497 
Q 1191 994 1439 701 
Q 1688 409 2113 409 
Q 2538 409 2786 701 
Q 3034 994 3034 1497 
Q 3034 2003 2786 2293 
Q 2538 2584 2113 2584 
z
M 3366 4563 
L 3366 3988 
Q 3128 4100 2886 4159 
Q 2644 4219 2406 4219 
Q 1781 4219 1451 3797 
Q 1122 3375 1075 2522 
Q 1259 2794 1537 2939 
Q 1816 3084 2150 3084 
Q 2853 3084 3261 2657 
Q 3669 2231 3669 1497 
Q 3669 778 3244 343 
Q 2819 -91 2113 -91 
Q 1303 -91 875 529 
Q 447 1150 447 2328 
Q 447 3434 972 4092 
Q 1497 4750 2381 4750 
Q 2619 4750 2861 4703 
Q 3103 4656 3366 4563 
z
" id="DejaVuSans-36" transform="scale(0.015625)"/>
       </defs>
       <use xlink:href="#DejaVuSans-36"/>
       <use x="63.623047" xlink:href="#DejaVuSans-30"/>
      </g>
     </g>
    </g>
    <g id="xtick_5">
     <g id="line2d_5">
      <g>
       <use style="stroke:#000000;stroke-width:0.8;" x="314.317576" xlink:href="#mc12ce27427" y="307.584"/>
      </g>
     </g>
     <g id="text_5">
      <!-- 80 -->
      <g transform="translate(307.955076 322.182437)scale(0.1 -0.1)">
       <defs>
        <path d="M 2034 2216 
Q 1584 2216 1326 1975 
Q 1069 1734 1069 1313 
Q 1069 891 1326 650 
Q 1584 409 2034 409 
Q 2484 409 2743 651 
Q 3003 894 3003 1313 
Q 3003 1734 2745 1975 
Q 2488 2216 2034 2216 
z
M 1403 2484 
Q 997 2584 770 2862 
Q 544 3141 544 3541 
Q 544 4100 942 4425 
Q 1341 4750 2034 4750 
Q 2731 4750 3128 4425 
Q 3525 4100 3525 3541 
Q 3525 3141 3298 2862 
Q 3072 2584 2669 2484 
Q 3125 2378 3379 2068 
Q 3634 1759 3634 1313 
Q 3634 634 3220 271 
Q 2806 -91 2034 -91 
Q 1263 -91 848 271 
Q 434 634 434 1313 
Q 434 1759 690 2068 
Q 947 2378 1403 2484 
z
M 1172 3481 
Q 1172 3119 1398 2916 
Q 1625 2713 2034 2713 
Q 2441 2713 2670 2916 
Q 2900 3119 2900 3481 
Q 2900 3844 2670 4047 
Q 2441 4250 2034 4250 
Q 1625 4250 1398 4047 
Q 1172 3844 1172 3481 
z
" id="DejaVuSans-38" transform="scale(0.015625)"/>
       </defs>
       <use xlink:href="#DejaVuSans-38"/>
       <use x="63.623047" xlink:href="#DejaVuSans-30"/>
      </g>
     </g>
    </g>
    <g id="xtick_6">
     <g id="line2d_6">
      <g>
       <use style="stroke:#000000;stroke-width:0.8;" x="374.438788" xlink:href="#mc12ce27427" y="307.584"/>
      </g>
     </g>
     <g id="text_6">
      <!-- 100 -->
      <g transform="translate(364.895038 322.182437)scale(0.1 -0.1)">
       <defs>
        <path d="M 794 531 
L 1825 531 
L 1825 4091 
L 703 3866 
L 703 4441 
L 1819 4666 
L 2450 4666 
L 2450 531 
L 3481 531 
L 3481 0 
L 794 0 
L 794 531 
z
" id="DejaVuSans-31" transform="scale(0.015625)"/>
       </defs>
       <use xlink:href="#DejaVuSans-31"/>
       <use x="63.623047" xlink:href="#DejaVuSans-30"/>
       <use x="127.246094" xlink:href="#DejaVuSans-30"/>
      </g>
     </g>
    </g>
    <g id="text_7">
     <!-- contest number -->
     <g transform="translate(196.477969 335.860562)scale(0.1 -0.1)">
      <defs>
       <path d="M 3122 3366 
L 3122 2828 
Q 2878 2963 2633 3030 
Q 2388 3097 2138 3097 
Q 1578 3097 1268 2742 
Q 959 2388 959 1747 
Q 959 1106 1268 751 
Q 1578 397 2138 397 
Q 2388 397 2633 464 
Q 2878 531 3122 666 
L 3122 134 
Q 2881 22 2623 -34 
Q 2366 -91 2075 -91 
Q 1284 -91 818 406 
Q 353 903 353 1747 
Q 353 2603 823 3093 
Q 1294 3584 2113 3584 
Q 2378 3584 2631 3529 
Q 2884 3475 3122 3366 
z
" id="DejaVuSans-63" transform="scale(0.015625)"/>
       <path d="M 1959 3097 
Q 1497 3097 1228 2736 
Q 959 2375 959 1747 
Q 959 1119 1226 758 
Q 1494 397 1959 397 
Q 2419 397 2687 759 
Q 2956 1122 2956 1747 
Q 2956 2369 2687 2733 
Q 2419 3097 1959 3097 
z
M 1959 3584 
Q 2709 3584 3137 3096 
Q 3566 2609 3566 1747 
Q 3566 888 3137 398 
Q 2709 -91 1959 -91 
Q 1206 -91 779 398 
Q 353 888 353 1747 
Q 353 2609 779 3096 
Q 1206 3584 1959 3584 
z
" id="DejaVuSans-6f" transform="scale(0.015625)"/>
       <path d="M 3513 2113 
L 3513 0 
L 2938 0 
L 2938 2094 
Q 2938 2591 2744 2837 
Q 2550 3084 2163 3084 
Q 1697 3084 1428 2787 
Q 1159 2491 1159 1978 
L 1159 0 
L 581 0 
L 581 3500 
L 1159 3500 
L 1159 2956 
Q 1366 3272 1645 3428 
Q 1925 3584 2291 3584 
Q 2894 3584 3203 3211 
Q 3513 2838 3513 2113 
z
" id="DejaVuSans-6e" transform="scale(0.015625)"/>
       <path d="M 1172 4494 
L 1172 3500 
L 2356 3500 
L 2356 3053 
L 1172 3053 
L 1172 1153 
Q 1172 725 1289 603 
Q 1406 481 1766 481 
L 2356 481 
L 2356 0 
L 1766 0 
Q 1100 0 847 248 
Q 594 497 594 1153 
L 594 3053 
L 172 3053 
L 172 3500 
L 594 3500 
L 594 4494 
L 1172 4494 
z
" id="DejaVuSans-74" transform="scale(0.015625)"/>
       <path d="M 3597 1894 
L 3597 1613 
L 953 1613 
Q 991 1019 1311 708 
Q 1631 397 2203 397 
Q 2534 397 2845 478 
Q 3156 559 3463 722 
L 3463 178 
Q 3153 47 2828 -22 
Q 2503 -91 2169 -91 
Q 1331 -91 842 396 
Q 353 884 353 1716 
Q 353 2575 817 3079 
Q 1281 3584 2069 3584 
Q 2775 3584 3186 3129 
Q 3597 2675 3597 1894 
z
M 3022 2063 
Q 3016 2534 2758 2815 
Q 2500 3097 2075 3097 
Q 1594 3097 1305 2825 
Q 1016 2553 972 2059 
L 3022 2063 
z
" id="DejaVuSans-65" transform="scale(0.015625)"/>
       <path d="M 2834 3397 
L 2834 2853 
Q 2591 2978 2328 3040 
Q 2066 3103 1784 3103 
Q 1356 3103 1142 2972 
Q 928 2841 928 2578 
Q 928 2378 1081 2264 
Q 1234 2150 1697 2047 
L 1894 2003 
Q 2506 1872 2764 1633 
Q 3022 1394 3022 966 
Q 3022 478 2636 193 
Q 2250 -91 1575 -91 
Q 1294 -91 989 -36 
Q 684 19 347 128 
L 347 722 
Q 666 556 975 473 
Q 1284 391 1588 391 
Q 1994 391 2212 530 
Q 2431 669 2431 922 
Q 2431 1156 2273 1281 
Q 2116 1406 1581 1522 
L 1381 1569 
Q 847 1681 609 1914 
Q 372 2147 372 2553 
Q 372 3047 722 3315 
Q 1072 3584 1716 3584 
Q 2034 3584 2315 3537 
Q 2597 3491 2834 3397 
z
" id="DejaVuSans-73" transform="scale(0.015625)"/>
       <path id="DejaVuSans-20" transform="scale(0.015625)"/>
       <path d="M 544 1381 
L 544 3500 
L 1119 3500 
L 1119 1403 
Q 1119 906 1312 657 
Q 1506 409 1894 409 
Q 2359 409 2629 706 
Q 2900 1003 2900 1516 
L 2900 3500 
L 3475 3500 
L 3475 0 
L 2900 0 
L 2900 538 
Q 2691 219 2414 64 
Q 2138 -91 1772 -91 
Q 1169 -91 856 284 
Q 544 659 544 1381 
z
M 1991 3584 
L 1991 3584 
z
" id="DejaVuSans-75" transform="scale(0.015625)"/>
       <path d="M 3328 2828 
Q 3544 3216 3844 3400 
Q 4144 3584 4550 3584 
Q 5097 3584 5394 3201 
Q 5691 2819 5691 2113 
L 5691 0 
L 5113 0 
L 5113 2094 
Q 5113 2597 4934 2840 
Q 4756 3084 4391 3084 
Q 3944 3084 3684 2787 
Q 3425 2491 3425 1978 
L 3425 0 
L 2847 0 
L 2847 2094 
Q 2847 2600 2669 2842 
Q 2491 3084 2119 3084 
Q 1678 3084 1418 2786 
Q 1159 2488 1159 1978 
L 1159 0 
L 581 0 
L 581 3500 
L 1159 3500 
L 1159 2956 
Q 1356 3278 1631 3431 
Q 1906 3584 2284 3584 
Q 2666 3584 2933 3390 
Q 3200 3197 3328 2828 
z
" id="DejaVuSans-6d" transform="scale(0.015625)"/>
       <path d="M 3116 1747 
Q 3116 2381 2855 2742 
Q 2594 3103 2138 3103 
Q 1681 3103 1420 2742 
Q 1159 2381 1159 1747 
Q 1159 1113 1420 752 
Q 1681 391 2138 391 
Q 2594 391 2855 752 
Q 3116 1113 3116 1747 
z
M 1159 2969 
Q 1341 3281 1617 3432 
Q 1894 3584 2278 3584 
Q 2916 3584 3314 3078 
Q 3713 2572 3713 1747 
Q 3713 922 3314 415 
Q 2916 -91 2278 -91 
Q 1894 -91 1617 61 
Q 1341 213 1159 525 
L 1159 0 
L 581 0 
L 581 4863 
L 1159 4863 
L 1159 2969 
z
" id="DejaVuSans-62" transform="scale(0.015625)"/>
       <path d="M 2631 2963 
Q 2534 3019 2420 3045 
Q 2306 3072 2169 3072 
Q 1681 3072 1420 2755 
Q 1159 2438 1159 1844 
L 1159 0 
L 581 0 
L 581 3500 
L 1159 3500 
L 1159 2956 
Q 1341 3275 1631 3429 
Q 1922 3584 2338 3584 
Q 2397 3584 2469 3576 
Q 2541 3569 2628 3553 
L 2631 2963 
z
" id="DejaVuSans-72" transform="scale(0.015625)"/>
      </defs>
      <use xlink:href="#DejaVuSans-63"/>
      <use x="54.980469" xlink:href="#DejaVuSans-6f"/>
      <use x="116.162109" xlink:href="#DejaVuSans-6e"/>
      <use x="179.541016" xlink:href="#DejaVuSans-74"/>
      <use x="218.75" xlink:href="#DejaVuSans-65"/>
      <use x="280.273438" xlink:href="#DejaVuSans-73"/>
      <use x="332.373047" xlink:href="#DejaVuSans-74"/>
      <use x="371.582031" xlink:href="#DejaVuSans-20"/>
      <use x="403.369141" xlink:href="#DejaVuSans-6e"/>
      <use x="466.748047" xlink:href="#DejaVuSans-75"/>
      <use x="530.126953" xlink:href="#DejaVuSans-6d"/>
      <use x="627.539062" xlink:href="#DejaVuSans-62"/>
      <use x="691.015625" xlink:href="#DejaVuSans-65"/>
      <use x="752.539062" xlink:href="#DejaVuSans-72"/>
     </g>
    </g>
   </g>
   <g id="matplotlib.axis_2">
    <g id="ytick_1">
     <g id="line2d_7">
      <defs>
       <path d="M 0 0 
L -3.5 0 
" id="m1dfd98bf9c" style="stroke:#000000;stroke-width:0.8;"/>
      </defs>
      <g>
       <use style="stroke:#000000;stroke-width:0.8;" x="57.6" xlink:href="#m1dfd98bf9c" y="307.584"/>
      </g>
     </g>
     <g id="text_8">
      <!-- 0 -->
      <g transform="translate(44.2375 311.383219)scale(0.1 -0.1)">
       <use xlink:href="#DejaVuSans-30"/>
      </g>
     </g>
    </g>
    <g id="ytick_2">
     <g id="line2d_8">
      <g>
       <use style="stroke:#000000;stroke-width:0.8;" x="57.6" xlink:href="#m1dfd98bf9c" y="254.3616"/>
      </g>
     </g>
     <g id="text_9">
      <!-- 20 -->
      <g transform="translate(37.875 258.160819)scale(0.1 -0.1)">
       <use xlink:href="#DejaVuSans-32"/>
       <use x="63.623047" xlink:href="#DejaVuSans-30"/>
      </g>
     </g>
    </g>
    <g id="ytick_3">
     <g id="line2d_9">
      <g>
       <use style="stroke:#000000;stroke-width:0.8;" x="57.6" xlink:href="#m1dfd98bf9c" y="201.1392"/>
      </g>
     </g>
     <g id="text_10">
      <!-- 40 -->
      <g transform="translate(37.875 204.938419)scale(0.1 -0.1)">
       <use xlink:href="#DejaVuSans-34"/>
       <use x="63.623047" xlink:href="#DejaVuSans-30"/>
      </g>
     </g>
    </g>
    <g id="ytick_4">
     <g id="line2d_10">
      <g>
       <use style="stroke:#000000;stroke-width:0.8;" x="57.6" xlink:href="#m1dfd98bf9c" y="147.9168"/>
      </g>
     </g>
     <g id="text_11">
      <!-- 60 -->
      <g transform="translate(37.875 151.716019)scale(0.1 -0.1)">
       <use xlink:href="#DejaVuSans-36"/>
       <use x="63.623047" xlink:href="#DejaVuSans-30"/>
      </g>
     </g>
    </g>
    <g id="ytick_5">
     <g id="line2d_11">
      <g>
       <use style="stroke:#000000;stroke-width:0.8;" x="57.6" xlink:href="#m1dfd98bf9c" y="94.6944"/>
      </g>
     </g>
     <g id="text_12">
      <!-- 80 -->
      <g transform="translate(37.875 98.493619)scale(0.1 -0.1)">
       <use xlink:href="#DejaVuSans-38"/>
       <use x="63.623047" xlink:href="#DejaVuSans-30"/>
      </g>
     </g>
    </g>
    <g id="ytick_6">
     <g id="line2d_12">
      <g>
       <use style="stroke:#000000;stroke-width:0.8;" x="57.6" xlink:href="#m1dfd98bf9c" y="41.472"/>
      </g>
     </g>
     <g id="text_13">
      <!-- 100 -->
      <g transform="translate(31.5125 45.271219)scale(0.1 -0.1)">
       <use xlink:href="#DejaVuSans-31"/>
       <use x="63.623047" xlink:href="#DejaVuSans-30"/>
       <use x="127.246094" xlink:href="#DejaVuSans-30"/>
      </g>
     </g>
    </g>
    <g id="text_14">
     <!-- Estimate -->
     <g transform="translate(25.432812 196.612375)rotate(-90)scale(0.1 -0.1)">
      <defs>
       <path d="M 628 4666 
L 3578 4666 
L 3578 4134 
L 1259 4134 
L 1259 2753 
L 3481 2753 
L 3481 2222 
L 1259 2222 
L 1259 531 
L 3634 531 
L 3634 0 
L 628 0 
L 628 4666 
z
" id="DejaVuSans-45" transform="scale(0.015625)"/>
       <path d="M 603 3500 
L 1178 3500 
L 1178 0 
L 603 0 
L 603 3500 
z
M 603 4863 
L 1178 4863 
L 1178 4134 
L 603 4134 
L 603 4863 
z
" id="DejaVuSans-69" transform="scale(0.015625)"/>
       <path d="M 2194 1759 
Q 1497 1759 1228 1600 
Q 959 1441 959 1056 
Q 959 750 1161 570 
Q 1363 391 1709 391 
Q 2188 391 2477 730 
Q 2766 1069 2766 1631 
L 2766 1759 
L 2194 1759 
z
M 3341 1997 
L 3341 0 
L 2766 0 
L 2766 531 
Q 2569 213 2275 61 
Q 1981 -91 1556 -91 
Q 1019 -91 701 211 
Q 384 513 384 1019 
Q 384 1609 779 1909 
Q 1175 2209 1959 2209 
L 2766 2209 
L 2766 2266 
Q 2766 2663 2505 2880 
Q 2244 3097 1772 3097 
Q 1472 3097 1187 3025 
Q 903 2953 641 2809 
L 641 3341 
Q 956 3463 1253 3523 
Q 1550 3584 1831 3584 
Q 2591 3584 2966 3190 
Q 3341 2797 3341 1997 
z
" id="DejaVuSans-61" transform="scale(0.015625)"/>
      </defs>
      <use xlink:href="#DejaVuSans-45"/>
      <use x="63.183594" xlink:href="#DejaVuSans-73"/>
      <use x="115.283203" xlink:href="#DejaVuSans-74"/>
      <use x="154.492188" xlink:href="#DejaVuSans-69"/>
      <use x="182.275391" xlink:href="#DejaVuSans-6d"/>
      <use x="279.6875" xlink:href="#DejaVuSans-61"/>
      <use x="340.966797" xlink:href="#DejaVuSans-74"/>
      <use x="380.175781" xlink:href="#DejaVuSans-65"/>
     </g>
    </g>
   </g>
   <g id="line2d_13">
    <path clip-path="url(#p3a2bc555c6)" d="M 73.832727 184.308549 
L 76.838788 189.630789 
L 79.844848 184.308549 
L 82.850909 189.630789 
L 85.85697 184.308549 
L 88.86303 189.630789 
L 91.869091 194.953029 
L 94.875152 189.630789 
L 97.881212 194.953029 
L 100.887273 200.275269 
L 103.893333 205.597509 
L 106.899394 210.919749 
L 109.905455 205.597509 
L 112.911515 200.275269 
L 115.917576 205.597509 
L 118.923636 210.919749 
L 121.929697 205.597509 
L 124.935758 200.275269 
L 127.941818 194.953029 
L 130.947879 189.630789 
L 133.953939 194.953029 
L 136.96 189.630789 
L 139.966061 184.308549 
L 142.972121 189.630789 
L 145.978182 194.953029 
L 148.984242 200.275269 
L 151.990303 205.597509 
L 154.996364 200.275269 
L 158.002424 194.953029 
L 161.008485 200.275269 
L 164.014545 205.597509 
L 167.020606 210.919749 
L 170.026667 216.241989 
L 173.032727 221.564229 
L 176.038788 226.886469 
L 179.044848 232.208709 
L 182.050909 237.530949 
L 185.05697 232.208709 
L 188.06303 226.886469 
L 191.069091 232.208709 
L 194.075152 226.886469 
L 197.081212 232.208709 
L 200.087273 237.530949 
L 203.093333 232.208709 
L 206.099394 226.886469 
L 209.105455 232.208709 
L 212.111515 226.886469 
L 215.117576 232.208709 
L 218.123636 226.886469 
L 221.129697 232.208709 
L 224.135758 226.886469 
L 227.141818 232.208709 
L 230.147879 237.530949 
L 233.153939 232.208709 
L 236.16 226.886469 
L 239.166061 221.564229 
L 242.172121 216.241989 
L 245.178182 210.919749 
L 248.184242 205.597509 
L 251.190303 200.275269 
L 254.196364 194.953029 
L 257.202424 200.275269 
L 260.208485 205.597509 
L 263.214545 200.275269 
L 266.220606 194.953029 
L 269.226667 189.630789 
L 272.232727 184.308549 
L 275.238788 178.986309 
L 278.244848 184.308549 
L 281.250909 189.630789 
L 284.25697 194.953029 
L 287.26303 200.275269 
L 290.269091 205.597509 
L 293.275152 200.275269 
L 296.281212 205.597509 
L 299.287273 200.275269 
L 302.293333 205.597509 
L 305.299394 210.919749 
L 308.305455 216.241989 
L 311.311515 221.564229 
L 314.317576 226.886469 
L 317.323636 221.564229 
L 320.329697 216.241989 
L 323.335758 221.564229 
L 326.341818 226.886469 
L 329.347879 232.208709 
L 332.353939 226.886469 
L 335.36 221.564229 
L 338.366061 226.886469 
L 341.372121 232.208709 
L 344.378182 237.530949 
L 347.384242 242.853189 
L 350.390303 237.530949 
L 353.396364 232.208709 
L 356.402424 237.530949 
" style="fill:none;stroke:#1f77b4;stroke-linecap:square;stroke-width:1.5;"/>
   </g>
   <g id="line2d_14">
    <path clip-path="url(#p3a2bc555c6)" d="M 57.6 205.889167 
L 414.72 205.889167 
" style="fill:none;stroke:#1f77b4;stroke-linecap:square;stroke-width:1.5;"/>
   </g>
   <g id="line2d_15">
    <path clip-path="url(#p3a2bc555c6)" d="M 73.832727 184.308549 
L 76.838788 189.630789 
L 79.844848 194.953029 
L 82.850909 189.630789 
L 85.85697 194.953029 
L 88.86303 189.630789 
L 91.869091 184.308549 
L 94.875152 178.986309 
L 97.881212 184.308549 
L 100.887273 178.986309 
L 103.893333 173.664069 
L 106.899394 178.986309 
L 109.905455 173.664069 
L 112.911515 168.341829 
L 115.917576 173.664069 
L 118.923636 168.341829 
L 121.929697 163.019589 
L 124.935758 157.697349 
L 127.941818 163.019589 
L 130.947879 157.697349 
L 133.953939 152.375109 
L 136.96 157.697349 
L 139.966061 163.019589 
L 142.972121 157.697349 
L 145.978182 152.375109 
L 148.984242 147.052869 
L 151.990303 141.730629 
L 154.996364 147.052869 
L 158.002424 141.730629 
L 161.008485 136.408389 
L 164.014545 131.086149 
L 167.020606 125.763909 
L 170.026667 120.441669 
L 173.032727 115.119429 
L 176.038788 120.441669 
L 179.044848 115.119429 
L 182.050909 109.797189 
L 185.05697 104.474949 
L 188.06303 109.797189 
L 191.069091 104.474949 
L 194.075152 99.152709 
L 197.081212 93.830469 
L 200.087273 88.508229 
L 203.093333 83.185989 
L 206.099394 77.863749 
L 209.105455 72.541509 
L 212.111515 67.219269 
L 215.117576 72.541509 
L 218.123636 67.219269 
L 221.129697 61.897029 
L 224.135758 56.574789 
L 227.141818 51.252549 
L 230.147879 45.930309 
L 233.153939 41.472 
L 236.16 46.79424 
L 239.166061 41.472 
L 242.172121 46.79424 
L 245.178182 41.472 
L 248.184242 46.79424 
L 251.190303 52.11648 
L 254.196364 46.79424 
L 257.202424 41.472 
L 260.208485 41.472 
L 263.214545 46.79424 
L 266.220606 52.11648 
L 269.226667 46.79424 
L 272.232727 52.11648 
L 275.238788 57.43872 
L 278.244848 62.76096 
L 281.250909 68.0832 
L 284.25697 62.76096 
L 287.26303 68.0832 
L 290.269091 62.76096 
L 293.275152 57.43872 
L 296.281212 62.76096 
L 299.287273 68.0832 
L 302.293333 62.76096 
L 305.299394 57.43872 
L 308.305455 62.76096 
L 311.311515 57.43872 
L 314.317576 52.11648 
L 317.323636 46.79424 
L 320.329697 52.11648 
L 323.335758 46.79424 
L 326.341818 41.472 
L 329.347879 41.472 
L 332.353939 41.472 
L 335.36 41.472 
L 338.366061 46.79424 
L 341.372121 41.472 
L 344.378182 41.472 
L 347.384242 41.472 
L 350.390303 41.472 
L 353.396364 46.79424 
L 356.402424 41.472 
L 359.408485 41.472 
L 362.414545 41.472 
" style="fill:none;stroke:#ff7f0e;stroke-linecap:square;stroke-width:1.5;"/>
   </g>
   <g id="line2d_16">
    <path clip-path="url(#p3a2bc555c6)" d="M 57.6 195.32474 
L 414.72 195.32474 
" style="fill:none;stroke:#ff7f0e;stroke-linecap:square;stroke-width:1.5;"/>
   </g>
   <g id="line2d_17">
    <path clip-path="url(#p3a2bc555c6)" d="M 73.832727 184.308549 
L 76.838788 189.630789 
L 79.844848 184.308549 
L 82.850909 189.630789 
L 85.85697 194.953029 
L 88.86303 200.275269 
L 91.869091 194.953029 
L 94.875152 200.275269 
L 97.881212 205.597509 
L 100.887273 200.275269 
L 103.893333 194.953029 
L 106.899394 200.275269 
L 109.905455 194.953029 
L 112.911515 200.275269 
L 115.917576 205.597509 
L 118.923636 210.919749 
L 121.929697 205.597509 
L 124.935758 210.919749 
L 127.941818 205.597509 
L 130.947879 210.919749 
L 133.953939 216.241989 
L 136.96 221.564229 
L 139.966061 226.886469 
L 142.972121 232.208709 
L 145.978182 226.886469 
L 148.984242 232.208709 
L 151.990303 237.530949 
L 154.996364 232.208709 
L 158.002424 237.530949 
L 161.008485 242.853189 
L 164.014545 248.175429 
L 167.020606 253.497669 
L 170.026667 248.175429 
L 173.032727 253.497669 
L 176.038788 258.819909 
L 179.044848 264.142149 
L 182.050909 258.819909 
L 185.05697 253.497669 
L 188.06303 258.819909 
L 191.069091 264.142149 
L 194.075152 258.819909 
L 197.081212 264.142149 
L 200.087273 269.464389 
L 203.093333 274.786629 
L 206.099394 280.108869 
L 209.105455 285.431109 
L 212.111515 288.95616 
L 215.117576 288.95616 
L 218.123636 288.95616 
L 221.129697 288.95616 
L 224.135758 288.95616 
L 227.141818 288.95616 
L 230.147879 283.63392 
L 233.153939 288.95616 
L 236.16 288.95616 
L 239.166061 288.95616 
L 242.172121 288.95616 
L 245.178182 288.95616 
L 248.184242 288.95616 
L 251.190303 288.95616 
L 254.196364 288.95616 
L 257.202424 288.95616 
L 260.208485 288.95616 
L 263.214545 288.95616 
L 266.220606 288.95616 
L 269.226667 288.95616 
L 272.232727 288.95616 
L 275.238788 288.95616 
L 278.244848 288.95616 
L 281.250909 288.95616 
L 284.25697 288.95616 
L 287.26303 283.63392 
L 290.269091 288.95616 
L 293.275152 288.95616 
L 296.281212 288.95616 
L 299.287273 283.63392 
L 302.293333 288.95616 
L 305.299394 288.95616 
L 308.305455 288.95616 
L 311.311515 288.95616 
L 314.317576 288.95616 
L 317.323636 288.95616 
L 320.329697 283.63392 
L 323.335758 288.95616 
L 326.341818 288.95616 
L 329.347879 288.95616 
L 332.353939 288.95616 
L 335.36 288.95616 
L 338.366061 288.95616 
L 341.372121 288.95616 
L 344.378182 283.63392 
L 347.384242 288.95616 
L 350.390303 288.95616 
L 353.396364 288.95616 
L 356.402424 288.95616 
L 359.408485 288.95616 
L 362.414545 288.95616 
L 365.420606 283.63392 
L 368.426667 288.95616 
L 371.432727 288.95616 
L 374.438788 288.95616 
L 377.444848 288.95616 
L 380.450909 288.95616 
L 383.45697 288.95616 
L 386.46303 288.95616 
L 389.469091 288.95616 
L 392.475152 288.95616 
L 395.481212 283.63392 
L 398.487273 288.95616 
" style="fill:none;stroke:#2ca02c;stroke-linecap:square;stroke-width:1.5;"/>
   </g>
   <g id="line2d_18">
    <path clip-path="url(#p3a2bc555c6)" d="M 57.6 210.313644 
L 414.72 210.313644 
" style="fill:none;stroke:#2ca02c;stroke-linecap:square;stroke-width:1.5;"/>
   </g>
   <g id="line2d_19">
    <path clip-path="url(#p3a2bc555c6)" d="M 73.832727 184.308549 
L 76.838788 178.986309 
L 79.844848 173.664069 
L 82.850909 168.341829 
L 85.85697 173.664069 
L 88.86303 168.341829 
L 91.869091 163.019589 
L 94.875152 157.697349 
L 97.881212 152.375109 
L 100.887273 157.697349 
L 103.893333 163.019589 
L 106.899394 168.341829 
L 109.905455 163.019589 
L 112.911515 157.697349 
L 115.917576 163.019589 
L 118.923636 157.697349 
L 121.929697 163.019589 
L 124.935758 168.341829 
L 127.941818 173.664069 
L 130.947879 178.986309 
L 133.953939 184.308549 
L 136.96 178.986309 
L 139.966061 173.664069 
L 142.972121 168.341829 
L 145.978182 163.019589 
L 148.984242 168.341829 
L 151.990303 163.019589 
L 154.996364 157.697349 
L 158.002424 152.375109 
L 161.008485 147.052869 
L 164.014545 141.730629 
L 167.020606 147.052869 
L 170.026667 141.730629 
L 173.032727 136.408389 
L 176.038788 131.086149 
L 179.044848 136.408389 
L 182.050909 131.086149 
L 185.05697 136.408389 
L 188.06303 131.086149 
L 191.069091 125.763909 
L 194.075152 131.086149 
L 197.081212 125.763909 
L 200.087273 120.441669 
L 203.093333 125.763909 
L 206.099394 120.441669 
L 209.105455 125.763909 
L 212.111515 120.441669 
L 215.117576 125.763909 
L 218.123636 120.441669 
L 221.129697 115.119429 
L 224.135758 109.797189 
L 227.141818 115.119429 
L 230.147879 109.797189 
L 233.153939 115.119429 
L 236.16 109.797189 
L 239.166061 104.474949 
L 242.172121 99.152709 
L 245.178182 93.830469 
L 248.184242 88.508229 
L 251.190303 83.185989 
L 254.196364 77.863749 
L 257.202424 83.185989 
L 260.208485 88.508229 
L 263.214545 83.185989 
L 266.220606 77.863749 
L 269.226667 72.541509 
L 272.232727 67.219269 
L 275.238788 61.897029 
L 278.244848 67.219269 
L 281.250909 61.897029 
L 284.25697 56.574789 
L 287.26303 51.252549 
L 290.269091 45.930309 
L 293.275152 41.472 
L 296.281212 41.472 
L 299.287273 41.472 
L 302.293333 41.472 
L 305.299394 41.472 
L 308.305455 41.472 
L 311.311515 41.472 
L 314.317576 41.472 
L 317.323636 41.472 
L 320.329697 41.472 
L 323.335758 41.472 
L 326.341818 46.79424 
L 329.347879 41.472 
L 332.353939 41.472 
L 335.36 41.472 
L 338.366061 41.472 
L 341.372121 41.472 
L 344.378182 46.79424 
L 347.384242 52.11648 
L 350.390303 46.79424 
L 353.396364 41.472 
L 356.402424 41.472 
L 359.408485 41.472 
L 362.414545 41.472 
L 365.420606 41.472 
L 368.426667 46.79424 
L 371.432727 52.11648 
L 374.438788 46.79424 
L 377.444848 52.11648 
L 380.450909 57.43872 
" style="fill:none;stroke:#d62728;stroke-linecap:square;stroke-width:1.5;"/>
   </g>
   <g id="line2d_20">
    <path clip-path="url(#p3a2bc555c6)" d="M 57.6 186.572385 
L 414.72 186.572385 
" style="fill:none;stroke:#d62728;stroke-linecap:square;stroke-width:1.5;"/>
   </g>
   <g id="patch_3">
    <path d="M 57.6 307.584 
L 57.6 41.472 
" style="fill:none;stroke:#000000;stroke-linecap:square;stroke-linejoin:miter;stroke-width:0.8;"/>
   </g>
   <g id="patch_4">
    <path d="M 414.72 307.584 
L 414.72 41.472 
" style="fill:none;stroke:#000000;stroke-linecap:square;stroke-linejoin:miter;stroke-width:0.8;"/>
   </g>
   <g id="patch_5">
    <path d="M 57.6 307.584 
L 414.72 307.584 
" style="fill:none;stroke:#000000;stroke-linecap:square;stroke-linejoin:miter;stroke-width:0.8;"/>
   </g>
   <g id="patch_6">
    <path d="M 57.6 41.472 
L 414.72 41.472 
" style="fill:none;stroke:#000000;stroke-linecap:square;stroke-linejoin:miter;stroke-width:0.8;"/>
   </g>
   <g id="legend_1">
    <g id="patch_7">
     <path d="M 64.6 108.1845 
L 102.9625 108.1845 
Q 104.9625 108.1845 104.9625 106.1845 
L 104.9625 48.472 
Q 104.9625 46.472 102.9625 46.472 
L 64.6 46.472 
Q 62.6 46.472 62.6 48.472 
L 62.6 106.1845 
Q 62.6 108.1845 64.6 108.1845 
z
" style="fill:#ffffff;opacity:0.8;stroke:#cccccc;stroke-linejoin:miter;"/>
    </g>
    <g id="line2d_21">
     <path d="M 66.6 54.570438 
L 86.6 54.570438 
" style="fill:none;stroke:#1f77b4;stroke-linecap:square;stroke-width:1.5;"/>
    </g>
    <g id="line2d_22"/>
    <g id="text_15">
     <!-- 0 -->
     <g transform="translate(94.6 58.070438)scale(0.1 -0.1)">
      <use xlink:href="#DejaVuSans-30"/>
     </g>
    </g>
    <g id="line2d_23">
     <path d="M 66.6 69.248563 
L 86.6 69.248563 
" style="fill:none;stroke:#ff7f0e;stroke-linecap:square;stroke-width:1.5;"/>
    </g>
    <g id="line2d_24"/>
    <g id="text_16">
     <!-- 1 -->
     <g transform="translate(94.6 72.748563)scale(0.1 -0.1)">
      <use xlink:href="#DejaVuSans-31"/>
     </g>
    </g>
    <g id="line2d_25">
     <path d="M 66.6 83.926688 
L 86.6 83.926688 
" style="fill:none;stroke:#2ca02c;stroke-linecap:square;stroke-width:1.5;"/>
    </g>
    <g id="line2d_26"/>
    <g id="text_17">
     <!-- 2 -->
     <g transform="translate(94.6 87.426688)scale(0.1 -0.1)">
      <use xlink:href="#DejaVuSans-32"/>
     </g>
    </g>
    <g id="line2d_27">
     <path d="M 66.6 98.604813 
L 86.6 98.604813 
" style="fill:none;stroke:#d62728;stroke-linecap:square;stroke-width:1.5;"/>
    </g>
    <g id="line2d_28"/>
    <g id="text_18">
     <!-- 3 -->
     <g transform="translate(94.6 102.104813)scale(0.1 -0.1)">
      <defs>
       <path d="M 2597 2516 
Q 3050 2419 3304 2112 
Q 3559 1806 3559 1356 
Q 3559 666 3084 287 
Q 2609 -91 1734 -91 
Q 1441 -91 1130 -33 
Q 819 25 488 141 
L 488 750 
Q 750 597 1062 519 
Q 1375 441 1716 441 
Q 2309 441 2620 675 
Q 2931 909 2931 1356 
Q 2931 1769 2642 2001 
Q 2353 2234 1838 2234 
L 1294 2234 
L 1294 2753 
L 1863 2753 
Q 2328 2753 2575 2939 
Q 2822 3125 2822 3475 
Q 2822 3834 2567 4026 
Q 2313 4219 1838 4219 
Q 1578 4219 1281 4162 
Q 984 4106 628 3988 
L 628 4550 
Q 988 4650 1302 4700 
Q 1616 4750 1894 4750 
Q 2613 4750 3031 4423 
Q 3450 4097 3450 3541 
Q 3450 3153 3228 2886 
Q 3006 2619 2597 2516 
z
" id="DejaVuSans-33" transform="scale(0.015625)"/>
      </defs>
      <use xlink:href="#DejaVuSans-33"/>
     </g>
    </g>
   </g>
  </g>
 </g>
 <defs>
  <clipPath id="p3a2bc555c6">
   <rect height="266.112" width="357.12" x="57.6" y="41.472"/>
  </clipPath>
 </defs>
</svg>
